<?xml version="1.0" ?><!DOCTYPE svg  PUBLIC '-//W3C//DTD SVG 1.1//EN'  'http://www.w3.org/Graphics/SVG/1.1/DTD/svg11.dtd'><svg enable-background="new 0 0 64 64" height="64px" id="Layer_1" version="1.1" viewBox="0 0 64 64" width="64px" xml:space="preserve" xmlns="http://www.w3.org/2000/svg" xmlns:xlink="http://www.w3.org/1999/xlink"><g><path d="M32,0.042C14.351,0.042,0.042,14.349,0.042,32c0,17.651,14.309,31.958,31.958,31.958   c17.65,0,31.958-14.307,31.958-31.958C63.958,14.349,49.65,0.042,32,0.042z M32,59.303C16.92,59.303,4.695,47.08,4.695,32   S16.92,4.695,32,4.695S59.303,16.92,59.303,32S47.08,59.303,32,59.303z" fill="#241F20"/><path d="M55.351,27.466c-0.429-2.144-1.135-4.19-2.095-6.084c-1.222-2.342-3.419-0.699-3.419-0.699l-0.006-0.024   c-3.296,2.479-6.914,3.265-9.449,1.631c-2.406-1.553-3.239-4.887-2.552-8.661l-0.014,0.001c0,0,0.013-0.045,0.028-0.109   c0.024-0.127,0.055-0.256,0.084-0.383c0.226-1.198,0.49-4.194-2.382-4.565c-1.165-0.174-2.353-0.269-3.564-0.269   c-1.571,0-3.102,0.169-4.59,0.459c-2.569,0.746-1.457,3.634-1.457,3.634l-0.031,0.008c1.125,4.264,0.404,8.168-2.258,9.885   c-2.311,1.488-5.519,0.992-8.56-0.979c-0.004,0-0.005,0-0.007-0.002c-2.854-1.651-4.085-0.332-4.478,0.301   c-0.912,1.849-1.586,3.834-1.998,5.912c-0.181,2.075,2.943,1.567,2.943,1.567s0.006,0.015,0.008,0.018   c3.771-0.654,7.094,0.203,8.627,2.616c2.188,3.45-0.025,8.853-4.948,12.728l0.007,0.007c0,0-2.413,1.798-0.863,3.74   c1.897,2.084,4.17,3.805,6.691,5.109c0.804,0.28,2.96,0.689,4.044-2.41c0.009-0.02,0.015-0.028,0.021-0.048   c1.263-4.633,4.146-7.877,7.516-7.88c3.27-0.004,6.081,3.051,7.401,7.461l0.007-0.007c0,0,0.97,3.618,3.24,2.697   c0.178-0.094,0.358-0.178,0.53-0.277c0.002,0,0.002-0.003,0.003-0.003c0.007-0.004,0.012-0.007,0.021-0.014   c2.158-1.24,4.1-2.812,5.765-4.642c1.431-1.885-1.047-3.898-1.047-3.898l0.005-0.007c-4.772-3.859-6.888-9.158-4.732-12.557   c1.555-2.445,4.948-3.285,8.78-2.581c-0.002-0.003-0.008-0.026-0.008-0.026S55.853,29.78,55.351,27.466z M32,40.453   c-4.668,0-8.454-3.785-8.454-8.453s3.786-8.454,8.454-8.454s8.453,3.786,8.453,8.454S36.668,40.453,32,40.453z" fill="#241F20"/><circle cx="32" cy="32" fill="#241F20" r="4.227"/></g></svg>