<!-- Generator: Adobe Illustrator 18.1.1, SVG Export Plug-In  -->
<svg version="1.1"
	 xmlns="http://www.w3.org/2000/svg" xmlns:xlink="http://www.w3.org/1999/xlink" xmlns:a="http://ns.adobe.com/AdobeSVGViewerExtensions/3.0/"
	 x="0px" y="0px" width="48.858px" height="27.79px" viewBox="0 0 48.858 27.79" enable-background="new 0 0 48.858 27.79"
	 xml:space="preserve">
<defs>
</defs>
<g>
	<path fill="#468080" d="M26.88,13.637l-0.239-1.31c0.998-0.668,1.977-1.929,2.421-4.287c0.81-1.344,0-2.166,0-2.166V3.851
		c-0.011-0.055-0.028-0.098-0.041-0.151c-0.045-0.607-0.145-1.238-0.337-1.814c-0.687-0.699-1.784-1.775-4.464-1.881
		c-1.862-0.065-3.725,0.56-4.509,1.13c-0.367,0.543-0.597,1.21-0.741,1.89c-0.084,0.223-0.163,0.457-0.222,0.718v2.02
		c0,0-0.81,0.824,0,2.171c0.43,2.282,1.365,3.533,2.332,4.22l-0.132,1.414c-0.602,0.297-2.437,1.21-4.268,2.197
		c-2.093-1.03-4.371-1.813-4.371-1.813l-0.211-1.163c0.757-0.512,1.503-1.473,1.842-3.271c0.247-0.409,0.289-1.051,0.256-1.513
		c0.072-0.599,0.209-2.238-0.227-3.543c-0.555-0.565-1.452-1.442-3.63-1.531c-1.518-0.053-3.034,0.454-3.673,0.92
		C5.923,4.953,5.852,6.672,5.895,7.642c-0.104,0.469-0.15,1.244,0.18,1.793c0.33,1.742,1.043,2.693,1.78,3.215l-0.121,1.301
		c0,0-5.133,2.3-6.268,3.327c-1.056,0.951-1.955,3.76-1.168,4.951c2.596,1.269,5.889,2.142,9.362,2.303
		c-0.342-1.786,0.673-4.588,1.846-5.645c0.404-0.364,1.201-0.854,2.141-1.373c-0.423,0.273-0.776,0.521-0.998,0.72
		c-1.38,1.246-2.562,4.941-1.529,6.497c7.092,3.47,18.146,4.698,27.044-0.139c0.646-1.193-0.573-4.121-1.254-5.292
		C35.342,17.034,29.628,14.199,26.88,13.637z"/>
	<path fill="#468080" d="M47.392,17.009c-1.135-1.027-6.268-3.327-6.268-3.327l-0.121-1.301c0.737-0.522,1.45-1.473,1.78-3.215
		c0.329-0.549,0.285-1.324,0.18-1.794c0.043-0.969-0.028-2.688-0.771-3.79c-0.639-0.467-2.156-0.974-3.673-0.921
		c-2.178,0.089-3.074,0.966-3.63,1.531c-0.437,1.305-0.299,2.944-0.229,3.543c-0.032,0.462,0.011,1.104,0.258,1.513
		c0.337,1.799,1.084,2.759,1.842,3.272l-0.212,1.163c0,0-2.423,0.833-4.565,1.909c2.023,0.981,4.531,2.273,5.368,3.026
		c1.172,1.057,2.188,3.859,1.845,5.644c3.474-0.161,6.767-1.034,9.362-2.302C49.347,20.769,48.447,17.959,47.392,17.009z"/>
</g>
</svg>