<!-- Generator: Adobe Illustrator 18.1.1, SVG Export Plug-In  -->
<svg version="1.1"
	 xmlns="http://www.w3.org/2000/svg" xmlns:xlink="http://www.w3.org/1999/xlink" xmlns:a="http://ns.adobe.com/AdobeSVGViewerExtensions/3.0/"
	 x="0px" y="0px" width="44.926px" height="47.374px" viewBox="0 0 44.926 47.374" enable-background="new 0 0 44.926 47.374"
	 xml:space="preserve">
<defs>
</defs>
<g>
	<path fill="#FFFFFF" d="M8.972,43.344c3.511,2.205,8.529,4.03,12.991,4.03c4.591,0,8.046-0.862,11.627-3.185L21.963,24.633
		L8.972,43.344z"/>
	<path fill="#FFFFFF" d="M23.575,21.198"/>
	<g>
		<path fill="#FFFFFF" d="M21.408,20.988l22.478,6.757c0.399-1.391,0.653-2.94,0.653-5.39C44.54,10.011,34.569,0,22.274,0
			C9.971,0,0,10.011,0,22.355c0,7.974,2.194,13.161,8.452,17.116l12.971-18.46L21.408,20.988z"/>
		<path fill="#FFFFFF" d="M21.686,21.408"/>
	</g>
	<path fill="#FFFFFF" d="M44.926,31.044l-21.054-7.139l12.132,18.729C40.153,39.919,43.317,35.84,44.926,31.044z"/>
</g>
</svg>