<!-- Generator: Adobe Illustrator 18.1.1, SVG Export Plug-In  -->
<svg version="1.1"
	 xmlns="http://www.w3.org/2000/svg" xmlns:xlink="http://www.w3.org/1999/xlink" xmlns:a="http://ns.adobe.com/AdobeSVGViewerExtensions/3.0/"
	 x="0px" y="0px" width="48.634px" height="39.416px" viewBox="0 0 48.634 39.416" enable-background="new 0 0 48.634 39.416"
	 xml:space="preserve">
<defs>
</defs>
<path fill="#FFFFFF" d="M48.634,38.118v-9.366c0-0.361-0.147-0.685-0.384-0.919c-0.235-0.234-0.563-0.378-0.928-0.378h-3.948
	c-4.108-4.307-10.646-7.155-18.082-7.385v-8.107h3.763c0.145,0,0.281-0.033,0.41-0.082c0.118-0.039,0.221-0.098,0.321-0.167
	c0.294-0.201,0.493-0.507,0.544-0.873c0.004-0.014,0.006-0.027,0.01-0.042c0.004-0.046,0.026-0.086,0.026-0.134V1.297
	c0-0.443-0.237-0.815-0.58-1.049C29.575,0.104,29.334,0,29.055,0h-9.452c-0.18,0-0.351,0.036-0.508,0.101
	c-0.001,0.001-0.002,0.002-0.004,0.002c-0.469,0.197-0.8,0.657-0.8,1.193v9.369c0,0.536,0.331,0.996,0.8,1.193
	c0.002,0.001,0.003,0.001,0.004,0.002c0.157,0.065,0.328,0.101,0.508,0.101h3.764v8.107c-7.435,0.229-13.974,3.078-18.081,7.385
	h-3.97H1.309c-0.002,0-0.004,0.001-0.006,0.001c-0.172,0.002-0.336,0.036-0.486,0.096c-0.014,0.006-0.027,0.013-0.041,0.02
	c-0.139,0.061-0.264,0.145-0.371,0.247c-0.013,0.012-0.025,0.024-0.037,0.037c-0.106,0.11-0.195,0.237-0.258,0.379
	c-0.002,0.007-0.006,0.013-0.008,0.02C0.037,28.408,0,28.575,0,28.752v6.827v2.539c0,0.09,0.01,0.178,0.027,0.262
	c0.018,0.081,0.043,0.159,0.074,0.234c0.002,0.006,0.004,0.012,0.008,0.018c0.063,0.144,0.152,0.274,0.262,0.386
	c0.01,0.01,0.018,0.02,0.028,0.029c0.112,0.108,0.243,0.195,0.387,0.258c0.008,0.004,0.015,0.007,0.023,0.011
	c0.154,0.064,0.324,0.1,0.5,0.1h0.007h9.446h0.004h0.004c0.002,0,0.004-0.001,0.006-0.001c0.005,0,0.01-0.002,0.016-0.002
	c0.166-0.004,0.324-0.037,0.471-0.095c0.016-0.006,0.029-0.015,0.045-0.021c0.137-0.062,0.26-0.144,0.367-0.245
	c0.014-0.013,0.026-0.026,0.039-0.041c0.106-0.109,0.194-0.236,0.256-0.377c0.004-0.007,0.006-0.014,0.01-0.021
	c0.064-0.152,0.1-0.318,0.1-0.494v-2.539v-6.827c0-0.177-0.035-0.344-0.1-0.497c-0.004-0.007-0.006-0.013-0.01-0.02
	c-0.063-0.142-0.15-0.27-0.258-0.38c-0.012-0.012-0.023-0.024-0.035-0.035c-0.109-0.104-0.236-0.188-0.377-0.25
	c-0.012-0.005-0.023-0.011-0.034-0.016c-0.153-0.062-0.319-0.096-0.495-0.097c-0.001,0-0.002-0.001-0.004-0.001h-0.004H7.858
	c3.759-3.41,9.286-5.629,15.508-5.839v5.839h-3.764c-0.723,0-1.308,0.575-1.308,1.297v6.218v0.364v2.578v0.085v0.121
	c0,0.039,0.018,0.071,0.021,0.109c0.006,0.034,0.013,0.066,0.02,0.098c0.08,0.478,0.407,0.86,0.861,1.009
	c0.129,0.049,0.263,0.082,0.405,0.082h9.452c0.145,0,0.279-0.033,0.409-0.082c0.455-0.148,0.778-0.531,0.858-1.009
	c0.008-0.032,0.014-0.065,0.02-0.098c0.003-0.038,0.021-0.07,0.021-0.109v-0.121v-0.085v-2.578V34.97v-6.218
	c0-0.722-0.578-1.297-1.309-1.297h-3.763v-5.839c6.223,0.21,11.75,2.43,15.509,5.839h-2.93c-0.34,0-0.643,0.134-0.875,0.343
	c-0.266,0.236-0.438,0.57-0.438,0.954v9.366c0,0.046,0.022,0.085,0.026,0.13c0.004,0.019,0.008,0.036,0.012,0.054
	c0.045,0.303,0.181,0.572,0.4,0.768c0.133,0.121,0.292,0.206,0.468,0.264c0.129,0.049,0.265,0.082,0.407,0.082h9.451
	c0.145,0,0.279-0.033,0.408-0.082c0.197-0.064,0.379-0.157,0.52-0.298c0.195-0.193,0.307-0.455,0.348-0.738
	c0.003-0.016,0.007-0.03,0.009-0.046C48.611,38.206,48.634,38.166,48.634,38.118z"/>
</svg>