<!-- Generator: Adobe Illustrator 18.1.1, SVG Export Plug-In  -->
<svg version="1.1"
	 xmlns="http://www.w3.org/2000/svg" xmlns:xlink="http://www.w3.org/1999/xlink" xmlns:a="http://ns.adobe.com/AdobeSVGViewerExtensions/3.0/"
	 x="0px" y="0px" width="22.898px" height="46.878px" viewBox="0 0 22.898 46.878" enable-background="new 0 0 22.898 46.878"
	 xml:space="preserve">
<defs>
</defs>
<g>
	<path fill="#468080" d="M18.439,14.214c-0.251-2.166-0.914-3.773-1.971-4.821c-1.062-1.046-2.589-1.572-4.58-1.572
		c-2.077,0-3.689,0.533-4.852,1.601c-1.165,1.064-1.749,2.552-1.749,4.457c0,1.695,0.543,3.05,1.612,4.053
		c1.056,0.99,2.862,1.815,5.424,2.494c3.566,0.936,6.222,2.286,7.977,4.053c1.733,1.751,2.597,3.934,2.597,6.549
		c0,3.172-1.071,5.768-3.227,7.797c-1.641,1.56-3.675,2.514-6.093,2.859v5.195h-4.13v-5.172c-2.398-0.381-4.51-1.426-6.337-3.141
		C1.049,36.605,0.022,34.389,0,31.909l0.057-0.883h4.023c0.037,2.322,0.693,4.114,1.97,5.379c1.278,1.264,3.083,1.9,5.409,1.9
		c2.326,0,4.14-0.637,5.445-1.9c1.304-1.265,1.955-3.022,1.955-5.271c0-1.871-0.621-3.369-1.87-4.496
		c-1.256-1.11-3.368-2.055-6.336-2.836c-3.146-0.83-5.501-2.061-7.057-3.688c-1.563-1.628-2.338-3.683-2.338-6.16
		c0-2.842,0.992-5.163,2.98-6.962c1.47-1.335,3.205-2.168,5.211-2.496V0h4.13v4.365c2.383,0.296,4.331,1.151,5.859,2.571
		c1.891,1.768,2.909,4.191,3.053,7.277H18.439z"/>
</g>
</svg>