<!-- Generator: Adobe Illustrator 18.1.1, SVG Export Plug-In  -->
<svg version="1.1"
	 xmlns="http://www.w3.org/2000/svg" xmlns:xlink="http://www.w3.org/1999/xlink" xmlns:a="http://ns.adobe.com/AdobeSVGViewerExtensions/3.0/"
	 x="0px" y="0px" width="45.313px" height="48.518px" viewBox="0 0 45.313 48.518" enable-background="new 0 0 45.313 48.518"
	 xml:space="preserve">
<defs>
</defs>
<path fill="#FFFFFF" d="M42.543,42.6l-0.826-2.529l-0.078-17.441l0.729-2.324h0.027l0.648-0.406l-0.623,0.406h2.604v-0.318v-1.514
	v-6.644L22.906,0L0,11.828v6.644v1.514v0.318h1.967l0.846,2.508V40.07L1.916,42.6H0v0.289v1.545v4.084h45.313v-4.084v-1.545V42.6
	H42.543z M22.801,4.051l13.495,7.086H9.016L22.801,4.051z M9.087,42.6H6.143L5.344,40.07h0.102V22.813l0.866-2.508h2.833
	l0.895,2.203l0.043,17.563L9.087,42.6z M16.384,42.6h-2.872l-0.9-2.529l-0.064-17.563l0.83-2.203h3.133l0.777,2.068l0.091,17.697
	L16.384,42.6z M24.651,40.07L23.655,42.6h-2.947l-0.826-2.529l-0.037-17.563l0.806-2.203h3.061l0.939,2.311h0.027L24.651,40.07z
	 M31.828,22.393L31.816,40.07L30.917,42.6h-2.943l-0.9-2.529l0.04-17.566l0.808-2.199h3.06L31.828,22.393L31.828,22.393z
	 M38.192,42.6h-3.017l-0.728-2.529l0.022-17.832l0.651-1.934h3.128l0.843,2.072l0.021,17.693h0.076L38.192,42.6z"/>
</svg>