<!-- Generator: Adobe Illustrator 18.1.1, SVG Export Plug-In  -->
<svg version="1.1"
	 xmlns="http://www.w3.org/2000/svg" xmlns:xlink="http://www.w3.org/1999/xlink" xmlns:a="http://ns.adobe.com/AdobeSVGViewerExtensions/3.0/"
	 x="0px" y="0px" width="26.188px" height="29.093px" viewBox="0 0 26.188 29.093" enable-background="new 0 0 26.188 29.093"
	 xml:space="preserve">
<defs>
</defs>
<g id="_x31__1_">
	<g>
		<path fill="#8F0018" d="M25.953,17.196L16.904,5.558c-0.166-0.236-0.42-0.408-0.73-0.433c-0.282-0.022-0.544,0.078-0.74,0.251
			c-0.003,0.003-0.006,0.003-0.009,0.005c-0.245,0.208-0.35,0.505-0.339,0.802c0,0-0.452,5.526-0.479,5.867
			C8.027,11.533,2.449,6.328,1.758,0C0.819,1.765,0.214,3.744,0.047,5.865c-0.651,8.267,5.525,15.498,13.793,16.148l-0.463,5.88
			c-0.057,0.291,0,0.601,0.209,0.845c0.364,0.423,1.004,0.474,1.43,0.113l10.817-10.135c0.227-0.193,0.339-0.463,0.346-0.738
			C26.215,17.706,26.147,17.422,25.953,17.196z M15.569,25.566l0.424-5.391c0,0-2.494-0.171-3.011-0.227
			C5.959,19.176,1.701,10.774,1.965,7.02c1.933,2.931,7.331,6.619,11.488,6.946c0.652,0.051,3.011,0.22,3.011,0.22l0.422-5.361
			l6.975,8.971L15.569,25.566z"/>
	</g>
</g>
</svg>