<!-- Generator: Adobe Illustrator 18.1.1, SVG Export Plug-In  -->
<svg version="1.1"
	 xmlns="http://www.w3.org/2000/svg" xmlns:xlink="http://www.w3.org/1999/xlink" xmlns:a="http://ns.adobe.com/AdobeSVGViewerExtensions/3.0/"
	 x="0px" y="0px" width="20.983px" height="47.037px" viewBox="0 0 20.983 47.037" enable-background="new 0 0 20.983 47.037"
	 xml:space="preserve">
<defs>
</defs>
<g>
	<path fill="#FFFFFF" d="M17.706,6.416V1.409C17.706,0.631,16.972,0,16.068,0c-0.904,0-1.637,0.631-1.637,1.409v4.953H3.777
		c-0.438,0-0.852,0.082-1.242,0.23C1.061,7.146,0,8.653,0,10.429v32.542c0,2.247,1.691,4.066,3.777,4.066h13.43
		c0.209,0,0.413-0.021,0.613-0.058c1.795-0.316,3.164-1.988,3.164-4.009V10.429C20.983,8.367,19.553,6.682,17.706,6.416z
		 M6.553,40.174c0,0.345-0.261,0.624-0.581,0.624H3.858c-0.321,0-0.581-0.279-0.581-0.624v-1.646c0-0.346,0.26-0.625,0.581-0.625
		h2.115c0.32,0,0.581,0.279,0.581,0.625V40.174z M6.553,35.533c0,0.345-0.261,0.625-0.581,0.625H3.858
		c-0.321,0-0.581-0.28-0.581-0.625v-1.646c0-0.345,0.26-0.625,0.581-0.625h2.115c0.32,0,0.581,0.28,0.581,0.625V35.533z
		 M6.553,30.894c0,0.344-0.261,0.624-0.581,0.624H3.858c-0.321,0-0.581-0.28-0.581-0.624v-1.646c0-0.345,0.26-0.625,0.581-0.625
		h2.115c0.32,0,0.581,0.28,0.581,0.625V30.894z M12.13,40.174c0,0.345-0.26,0.624-0.58,0.624H9.434c-0.32,0-0.58-0.279-0.58-0.624
		v-1.646c0-0.346,0.26-0.625,0.58-0.625h2.116c0.32,0,0.58,0.279,0.58,0.625V40.174z M12.13,35.533c0,0.345-0.26,0.625-0.58,0.625
		H9.434c-0.32,0-0.58-0.28-0.58-0.625v-1.646c0-0.345,0.26-0.625,0.58-0.625h2.116c0.32,0,0.58,0.28,0.58,0.625V35.533z
		 M12.13,30.894c0,0.344-0.26,0.624-0.58,0.624H9.434c-0.32,0-0.58-0.28-0.58-0.624v-1.646c0-0.345,0.26-0.625,0.58-0.625h2.116
		c0.32,0,0.58,0.28,0.58,0.625V30.894z M17.706,40.174c0,0.345-0.26,0.624-0.581,0.624h-2.115c-0.32,0-0.58-0.279-0.58-0.624v-1.646
		c0-0.346,0.26-0.625,0.58-0.625h2.115c0.321,0,0.581,0.279,0.581,0.625V40.174z M17.706,35.533c0,0.345-0.26,0.625-0.581,0.625
		h-2.115c-0.32,0-0.58-0.28-0.58-0.625v-1.646c0-0.345,0.26-0.625,0.58-0.625h2.115c0.321,0,0.581,0.28,0.581,0.625V35.533z
		 M17.706,30.894c0,0.344-0.26,0.624-0.581,0.624h-2.115c-0.32,0-0.58-0.28-0.58-0.624v-1.646c0-0.345,0.26-0.625,0.58-0.625h2.115
		c0.321,0,0.581,0.28,0.581,0.625V30.894z M18.01,20.562c0,1.17-0.802,2.121-1.79,2.121h-6.006H4.763
		c-0.989,0-1.79-0.951-1.79-2.121v-7.748c0-1.171,0.801-2.119,1.79-2.119H4.83h11.39c0.988,0,1.79,0.948,1.79,2.119V20.562z"/>
</g>
</svg>