<!-- Generator: Adobe Illustrator 19.0.1, SVG Export Plug-In  -->
<svg version="1.1"
	 xmlns="http://www.w3.org/2000/svg" xmlns:xlink="http://www.w3.org/1999/xlink" xmlns:a="http://ns.adobe.com/AdobeSVGViewerExtensions/3.0/"
	 x="0px" y="0px" width="57.408px" height="57.55px" viewBox="0 0 57.408 57.55" style="enable-background:new 0 0 57.408 57.55;"
	 xml:space="preserve">
<style type="text/css">
	.st0{fill:#231F20;}
</style>
<defs>
</defs>
<g>
	<path class="st0" d="M28.704,9.402c-8.169,0-14.815,6.647-14.815,14.815c0,8.168,6.646,14.814,14.815,14.814
		c8.169,0,14.815-6.646,14.815-14.814C43.519,16.048,36.873,9.402,28.704,9.402z M28.704,37.18c-7.147,0-12.964-5.815-12.964-12.963
		c0-7.148,5.816-12.963,12.964-12.963c7.148,0,12.963,5.815,12.963,12.963C41.667,31.365,35.852,37.18,28.704,37.18z"/>
	<path class="st0" d="M57.137,46.71l-9.42-9.42l1.672-0.965v-6.49l3.244-5.618l-3.244-5.62v-6.489L43.77,8.863l-3.244-5.619h-6.49
		L28.416,0l-5.62,3.245h-6.487l-3.247,5.619l-5.618,3.245v6.489L4.2,24.217l3.244,5.618v6.49l2.037,1.176L0.272,46.71
		c-0.266,0.265-0.345,0.663-0.201,1.009c0.142,0.347,0.481,0.572,0.855,0.572H9.26v8.333c0,0.374,0.225,0.712,0.571,0.855
		c0.114,0.048,0.235,0.07,0.355,0.07c0.24,0,0.476-0.094,0.654-0.271l12.041-12.041l5.535,3.196l5.619-3.245h0.443l12.09,12.089
		c0.177,0.178,0.414,0.271,0.654,0.271c0.119,0,0.239-0.022,0.354-0.07c0.348-0.143,0.572-0.481,0.572-0.855v-8.333h8.333
		c0.374,0,0.713-0.225,0.855-0.572C57.481,47.374,57.402,46.975,57.137,46.71z M10.186,46.439H3.162l7.979-7.979l1.921,1.11
		l3.245,5.619h4.004l-9.199,9.2v-7.024C11.112,46.853,10.698,46.439,10.186,46.439z M33.539,43.337l-5.123,2.959l-5.125-2.959
		h-5.916l-2.957-5.123l-5.123-2.958V29.34l-2.959-5.123l2.959-5.125v-5.915l5.123-2.958l2.959-5.123h5.914l5.125-2.958l5.123,2.958
		h5.917l2.956,5.123l5.124,2.958v5.915l2.958,5.125l-2.958,5.123v5.916l-5.124,2.958l-2.956,5.123H33.539z M47.223,46.439
		c-0.512,0-0.926,0.414-0.926,0.926v7.024l-9.2-9.2h3.429l3.244-5.619l2.287-1.321l8.189,8.189H47.223z"/>
</g>
</svg>