<!-- Generator: Adobe Illustrator 18.1.1, SVG Export Plug-In  -->
<svg version="1.1"
	 xmlns="http://www.w3.org/2000/svg" xmlns:xlink="http://www.w3.org/1999/xlink" xmlns:a="http://ns.adobe.com/AdobeSVGViewerExtensions/3.0/"
	 x="0px" y="0px" width="40.565px" height="47.096px" viewBox="0 0 40.565 47.096" enable-background="new 0 0 40.565 47.096"
	 xml:space="preserve">
<defs>
</defs>
<g>
	<g>
		<path fill="#FFFFFF" d="M20.282,13.979c1.081,0,2.113,0.189,3.076,0.518L20.282,0l-3.075,14.496
			C18.17,14.168,19.202,13.979,20.282,13.979z"/>
		<path fill="#FFFFFF" d="M26.537,16.346c1.575,1.393,2.658,3.301,2.978,5.453l11.05-10.016L26.537,16.346z"/>
		<path fill="#FFFFFF" d="M14.026,16.346L0,11.783l11.048,10.023C11.368,19.648,12.453,17.738,14.026,16.346z"/>
		<path fill="#FFFFFF" d="M25.771,30.513l14.794,4.813L29.377,25.184C28.864,27.361,27.559,29.236,25.771,30.513z"/>
		<path fill="#FFFFFF" d="M11.187,25.179L0,35.326l14.792-4.813C13.004,29.236,11.698,27.359,11.187,25.179z"/>
		<path fill="#FFFFFF" d="M20.282,32.27c-1.152,0-2.253-0.213-3.272-0.589l3.272,15.415l3.274-15.415
			C22.536,32.057,21.437,32.27,20.282,32.27z"/>
	</g>
	<path fill="#FFFFFF" d="M26.856,23.226c0,3.554-2.943,6.437-6.574,6.437s-6.573-2.883-6.573-6.437c0-3.552,2.942-6.435,6.573-6.435
		S26.856,19.674,26.856,23.226z"/>
</g>
</svg>