<!-- Generator: Adobe Illustrator 18.1.1, SVG Export Plug-In  -->
<svg version="1.1"
	 xmlns="http://www.w3.org/2000/svg" xmlns:xlink="http://www.w3.org/1999/xlink" xmlns:a="http://ns.adobe.com/AdobeSVGViewerExtensions/3.0/"
	 x="0px" y="0px" width="49.009px" height="25.28px" viewBox="0 0 49.009 25.28" enable-background="new 0 0 49.009 25.28"
	 xml:space="preserve">
<defs>
</defs>
<g>
	<g>
		<path fill-rule="evenodd" clip-rule="evenodd" fill="#FFFFFF" d="M35.202,12.271H34.99l-2.229-4.937
			c-0.924-2.471-2.541-2.32-2.541-2.32H18.58c-1.755-0.049-2.217,1.362-2.217,1.362l-2.237,5.895h-0.203
			c-0.604,0-1.094,0.534-1.094,1.192v6.387c0,0.659,0.49,1.193,1.094,1.193h0.753v3.042c0,0.659,0.49,1.194,1.094,1.194h1.601
			c0.604,0,1.094-0.535,1.094-1.194v-3.042h12.61v3.042c0,0.659,0.489,1.194,1.093,1.194h1.601c0.604,0,1.093-0.535,1.093-1.194
			v-3.042h0.339c0.603,0,1.093-0.535,1.093-1.193v-6.387C36.294,12.805,35.805,12.271,35.202,12.271z M17.025,7.118
			c0,0,0.475-1.253,1.859-1.253h10.761c0,0,1.464-0.173,2.057,1.685l2.117,4.479H15.305L17.025,7.118z M16.995,18.046
			c-0.855,0-1.549-0.756-1.549-1.69c0-0.933,0.694-1.69,1.549-1.69c0.856,0,1.549,0.757,1.549,1.69
			C18.543,17.29,17.851,18.046,16.995,18.046z M32.393,18.046c-0.855,0-1.549-0.756-1.549-1.69c0-0.933,0.694-1.69,1.549-1.69
			c0.855,0,1.549,0.757,1.549,1.69C33.941,17.29,33.248,18.046,32.393,18.046z"/>
	</g>
	<g>
		<path fill-rule="evenodd" clip-rule="evenodd" fill="#FFFFFF" d="M47.916,7.26h-0.211l-2.229-4.938
			c-0.924-2.471-2.541-2.32-2.541-2.32l-11.64,0.001c-1.756-0.05-2.217,1.361-2.217,1.361l-1.121,2.954h1.009l0.775-2.212
			c0,0,0.475-1.252,1.859-1.252h10.76c0,0,1.464-0.174,2.057,1.683l2.117,4.479h-12.62l2.059,4.56h0.21
			c0.604,0,1.094,0.534,1.094,1.193v3.264h6.513v3.042c0,0.658,0.49,1.193,1.093,1.193h1.602c0.604,0,1.093-0.535,1.093-1.193
			v-3.042h0.339c0.604,0,1.093-0.534,1.093-1.193V8.453C49.009,7.794,48.52,7.26,47.916,7.26z M45.107,13.034
			c-0.855,0-1.549-0.757-1.549-1.691c0-0.934,0.694-1.69,1.549-1.69c0.855,0,1.549,0.756,1.549,1.69
			C46.657,12.277,45.962,13.034,45.107,13.034z"/>
	</g>
	<g>
		<path fill-rule="evenodd" clip-rule="evenodd" fill="#FFFFFF" d="M0,8.517v6.387c0,0.659,0.49,1.194,1.094,1.194h0.338v3.041
			c0,0.66,0.489,1.194,1.094,1.194h1.601c0.604,0,1.093-0.534,1.093-1.194v-3.041h6.513v-3.263c0-0.66,0.49-1.194,1.094-1.194h0.211
			l2.058-4.559H2.476l2.116-4.479c0.594-1.856,2.058-1.685,2.058-1.685h10.76c1.385,0,1.86,1.252,1.86,1.252l0.775,2.213h1.008
			L19.932,1.43c0,0-0.462-1.412-2.217-1.362L6.075,0.067c0,0-1.617-0.15-2.542,2.32L1.305,7.325H1.094C0.49,7.325,0,7.859,0,8.517z
			 M2.353,11.409c0-0.935,0.694-1.691,1.549-1.691c0.855,0,1.549,0.757,1.549,1.691c0,0.934-0.694,1.691-1.549,1.691
			C3.047,13.1,2.353,12.343,2.353,11.409z"/>
	</g>
</g>
</svg>