<!-- Generator: Adobe Illustrator 18.1.1, SVG Export Plug-In  -->
<svg version="1.1"
	 xmlns="http://www.w3.org/2000/svg" xmlns:xlink="http://www.w3.org/1999/xlink" xmlns:a="http://ns.adobe.com/AdobeSVGViewerExtensions/3.0/"
	 x="0px" y="0px" width="44.813px" height="46.985px" viewBox="0 0 44.813 46.985" enable-background="new 0 0 44.813 46.985"
	 xml:space="preserve">
<defs>
</defs>
<g>
	<polygon fill="#333333" points="40.082,7.447 39.971,7.35 37.49,5.189 36.121,3.994 3.582,37.851 1.194,43.941 1.184,43.933 
		0,46.955 0.016,46.948 0,46.985 9.113,42.678 41.614,8.784 40.262,7.605 	"/>
	<path fill="#333333" d="M44.52,3.855c0,0-0.645-0.822-2.035-2.038c-1.391-1.211-2.14-1.603-2.14-1.603
		c-0.36-0.314-0.908-0.277-1.226,0.081L36.574,3.22l5.475,4.777L44.6,5.076C44.914,4.714,44.877,4.168,44.52,3.855z"/>
</g>
</svg>