<!-- Generator: Adobe Illustrator 18.1.1, SVG Export Plug-In  -->
<svg version="1.1"
	 xmlns="http://www.w3.org/2000/svg" xmlns:xlink="http://www.w3.org/1999/xlink" xmlns:a="http://ns.adobe.com/AdobeSVGViewerExtensions/3.0/"
	 x="0px" y="0px" width="49.02px" height="45.052px" viewBox="0 0 49.02 45.052" enable-background="new 0 0 49.02 45.052"
	 xml:space="preserve">
<defs>
</defs>
<g>
	<path fill="#468080" d="M41.905,19.28c0.085-0.183,0.09-0.365-0.162-0.461c0.108-0.214,0.106-0.392,0.068-0.551
		c-1.087,0.211-2.265,0.334-3.502,0.334c-5.001,0-9.1-1.902-9.541-4.331c1.917,1.28,4.407,2.504,5.413,2.798
		c0.018,0.005,0.035,0.01,0.053,0.015c3.187,1.28,8.966,0.146,8.966,0.146s0.12-0.418-0.448-0.958
		c-0.57-0.54-1.354-0.964-0.967-1.583c0.283-0.449,0.783-1.119,0.611-1.477c-0.065-0.135-0.228-0.227-0.542-0.238
		c-1.133-0.049-2.531,0.207-2.531,0.207s-0.194-0.688-1.422-1.037c-1.103-0.316-2.941-0.748-3.715-0.646
		c-0.085,0.011-0.157,0.027-0.215,0.053c-0.57,0.252-1.75,1.059-2.699,0.787c-0.388-0.11-0.615-0.256-0.816-0.375
		c-0.284-0.168-0.511-0.285-1.077-0.166c-0.963,0.203-1.136,0.809-1.136,0.809s-0.091-0.037-0.217-0.033
		c-0.544-0.351-1.1-0.684-1.682-0.975c0.121-0.258,0.123-0.523-0.229-0.655c0.155-0.304,0.167-0.567,0.113-0.799
		c-2.096,0.397-4.806,0.64-7.775,0.64c-2.933,0-5.62-0.234-7.705-0.625c-0.142,0.485-0.394,0.977-0.309,1.246
		C4.276,14.315,0,20.572,0,27.841c0,5.623,2.684,10.506,6.568,13.99c4.228,3.801,15.82,4.199,20.618,1.402
		c0.763-0.445,1.497-0.972,2.209-1.551c3.658,1.754,10.175,1.736,13.108,0.025c3.578-2.088,6.517-6.461,6.517-10.912
		C49.02,25.757,46.122,21.402,41.905,19.28z M19.083,35.569l0.075,1.725c0.008,0.119-0.14,0.246-0.292,0.254l-2.74,0.123
		c-0.302,0.01-0.312-0.196-0.395-1.977c-4.019-0.391-6.205-2.35-6.362-5.854c-0.005-0.149,0.106-0.243,0.294-0.284l3.629-0.365
		c0.229-0.014,0.372,0.035,0.433,0.304c0.348,1.523,2.15,1.72,3.022,1.536c0.474-0.105,0.796-0.348,0.899-0.698
		c0.294-0.975-0.528-1.897-4.181-3.563c-2.289-1.039-3.655-1.569-3.748-3.714c-0.103-2.257,1.696-4.719,5.208-5.445l-0.075-1.632
		c-0.003-0.149,0.106-0.273,0.257-0.278l2.777-0.126c0.303-0.013,0.315,0.165,0.391,1.915c3.527,0.412,5.757,2.576,5.875,5.193
		c0.008,0.176-0.139,0.305-0.404,0.342l-4.011,0.391c0,0-0.086-1.572-2.112-1.35c-0.835,0.092-0.874,0.59-0.86,0.795
		c0.041,0.932,1.319,1.404,3.936,2.806c2.42,1.294,3.725,2.276,3.805,4.122C24.639,32.763,22.597,34.88,19.083,35.569z
		 M36.396,36.034l0.054,1.219c0.003,0.086-0.101,0.176-0.209,0.178L34.3,37.52c-0.216,0.009-0.222-0.141-0.279-1.4
		c-2.85-0.274-4.399-1.666-4.507-4.151c-0.006-0.106,0.069-0.173,0.206-0.196l2.573-0.266c0.163-0.005,0.263,0.029,0.304,0.217
		c0.25,1.084,1.524,1.219,2.142,1.088c0.34-0.074,0.567-0.242,0.639-0.492c0.207-0.688-0.374-1.346-2.964-2.525
		c-1.624-0.738-2.591-1.115-2.655-2.63c-0.072-1.604,1.204-3.349,3.693-3.862l-0.057-1.156c-0.002-0.107,0.075-0.194,0.183-0.199
		l1.97-0.088c0.213-0.008,0.221,0.119,0.275,1.359c2.502,0.291,4.078,1.822,4.163,3.681c0.008,0.126-0.098,0.214-0.286,0.242
		l-2.841,0.28c0,0-0.06-1.121-1.5-0.963c-0.593,0.066-0.614,0.417-0.608,0.566c0.028,0.66,0.936,0.996,2.792,1.988
		c1.715,0.914,2.64,1.613,2.696,2.92C40.332,34.042,38.886,35.542,36.396,36.034z"/>
	<path fill="#468080" d="M11.533,9.509c1.907,0.263,3.964,0.414,6.127,0.414c3.089,0,5.986-0.301,8.497-0.818l5.632-2.971
		c0,0,0-0.711-1.134-1.302c-1.137-0.593-2.555-0.905-2.225-2.052c0.242-0.83,0.727-2.106,0.296-2.588
		c-0.163-0.184-0.459-0.253-0.957-0.132c-1.799,0.431-3.879,1.459-3.879,1.459S23.28,0.53,21.197,0.53
		c-1.872,0-4.95,0.146-6.117,0.652c-0.129,0.054-0.234,0.113-0.314,0.178c-0.782,0.652-2.271,2.445-3.88,2.445
		c-0.66,0-1.08-0.126-1.449-0.221c-0.521-0.14-0.931-0.219-1.766,0.221c-1.417,0.75-1.417,1.777-1.417,1.777
		S5.166,5.464,5.166,6.964c3.594,1.66,6.597,2.467,6.597,2.467S11.662,9.457,11.533,9.509z"/>
</g>
</svg>