<!-- Generator: Adobe Illustrator 18.1.1, SVG Export Plug-In  -->
<svg version="1.1"
	 xmlns="http://www.w3.org/2000/svg" xmlns:xlink="http://www.w3.org/1999/xlink" xmlns:a="http://ns.adobe.com/AdobeSVGViewerExtensions/3.0/"
	 x="0px" y="0px" width="49.503px" height="21.45px" viewBox="0 0 49.503 21.45" enable-background="new 0 0 49.503 21.45"
	 xml:space="preserve">
<defs>
</defs>
<g>
	<path fill="#333333" d="M25.955,15.879c0.184-0.267,0.271-0.578,0.244-0.875c-0.027-0.259-0.142-0.486-0.324-0.633
		c-0.162-0.138-0.368-0.205-0.595-0.202c-0.362,0.007-0.729,0.194-0.979,0.503l-4.006,4.876c0.653,0.227,1.32,0.443,1.978,0.64
		c0.009-0.015,0.02-0.029,0.032-0.045l3.18-3.871C25.616,16.113,25.776,15.981,25.955,15.879z"/>
	<path fill="#333333" d="M22.524,14.788c-0.02-0.279-0.147-0.526-0.353-0.698c-0.179-0.147-0.401-0.221-0.639-0.219
		c-0.328,0.005-0.64,0.159-0.859,0.426l-3.334,4.059c0.606,0.287,1.271,0.568,1.969,0.832l2.952-3.592
		C22.452,15.363,22.544,15.077,22.524,14.788z"/>
	<path fill="#333333" d="M26.864,16.614c-0.1,0.002-0.189,0.017-0.274,0.047l-3.172,3.859c0.725,0.202,1.425,0.376,2.071,0.523
		l1.941-2.364l0.189-0.229l0.208-0.254c0.304-0.369,0.192-0.959-0.241-1.32C27.375,16.704,27.119,16.612,26.864,16.614z"/>
	<path fill="#333333" d="M17.277,15.643c-0.197-0.162-0.429-0.254-0.626-0.252c-0.042,0-0.149,0.008-0.196,0.067l-1.295,1.577
		c0.33,0.285,0.76,0.565,1.256,0.845l1.203-1.465C17.713,16.298,17.626,15.932,17.277,15.643z"/>
	<path fill="#333333" d="M26.431,21.443c0.043,0.002,0.088,0.007,0.13,0.007c0.476-0.01,0.882-0.282,1.071-0.434l-0.08-0.937
		L26.431,21.443z"/>
	<path fill="#333333" d="M49.351,2.716c-0.023-1.283-1.861-2.289-4.108-2.254c-2.256,0.035-4.062,1.099-4.039,2.382l0.012,0.747
		l-5.498,2.076l-0.202-0.209c-0.535-0.559-4.23-2.352-6.431-3.354l-0.049-0.027c-0.439-0.267-0.905-0.399-1.39-0.394
		c-0.818,0.012-1.426,0.428-1.431,0.43l-0.032,0.02l-4.42,2.541L20.86,7.669c-0.691,1.844-0.463,2.387-0.376,2.51
		c0.025,0.037,0.092,0.134,0.361,0.132c0.423-0.007,0.974-0.264,1.159-0.369c2.008-1.253,3.316-4.482,3.326-4.514l0.189-0.476
		l0.444,0.257c0.231,0.134,0.63,0.267,1.019,0.396c0.616,0.207,1.248,0.421,1.645,0.742l0.05,0.045
		c0.816,0.902,1.816,1.669,2.783,2.409c1.285,0.987,2.502,1.919,3.012,3.01l0.035,0.07l0.008,0.079
		c0.184,1.99,0.226,3.688,0.229,4.794l6.861-3.296c0.563,0.902,2.073,1.54,3.862,1.512c2.248-0.035,4.06-1.101,4.037-2.382
		L49.351,2.716z"/>
	<path fill="#333333" d="M30.923,9.501c-0.989-0.757-2.011-1.54-2.875-2.486c-0.284-0.214-0.845-0.404-1.346-0.573
		c-0.261-0.085-0.513-0.169-0.737-0.259c-0.449,0.982-1.692,3.389-3.503,4.512l-0.015,0.01c-0.085,0.047-0.854,0.476-1.587,0.489
		c-0.608,0.007-0.932-0.27-1.099-0.506c-0.431-0.612-0.346-1.669,0.27-3.317l0.986-3.286l2.845-1.634
		c-0.556-0.316-1.248-0.471-2.06-0.459c-3.27,0.052-7.382,2.733-7.425,2.761L14.21,4.862L8.142,2.219
		C8.092,0.955,6.269-0.036,4.04,0.001C1.789,0.036-0.017,1.1,0,2.38l0.155,9.874c0.02,1.281,1.859,2.289,4.114,2.254
		c1.912-0.03,3.493-0.81,3.914-1.828l6.209,2.8l-0.015,0.254c-0.008,0.177,0.037,0.358,0.132,0.542l1.186-1.445
		c0.222-0.266,0.556-0.418,0.942-0.423c0.426-0.007,0.887,0.167,1.263,0.474c0.219,0.184,0.393,0.394,0.516,0.615l1.499-1.826
		c0.401-0.489,0.987-0.773,1.603-0.78c0.466-0.01,0.919,0.147,1.275,0.441c0.287,0.234,0.494,0.54,0.608,0.887l0.14-0.169
		c0.438-0.538,1.068-0.852,1.722-0.862c0.463-0.007,0.891,0.14,1.238,0.424c0.384,0.316,0.623,0.774,0.675,1.297
		c0.022,0.245,0,0.496-0.06,0.741c0.394,0.047,0.774,0.207,1.091,0.468c0.856,0.705,1.026,1.918,0.378,2.701l-0.363,0.446
		l0.134,1.571c0.032,0,0.06,0,0.089,0c0.902-0.012,1.335-0.789,1.436-0.996c0.019-0.426,0.107-2.755-0.142-3.961
		c-0.04-0.18-0.083-0.319-0.13-0.421c-0.349-0.76-2.332-2.404-3.067-2.974l0.446-0.586c0.284,0.212,2.777,2.112,3.293,3.256
		c0.07,0.149,0.127,0.339,0.177,0.573c0.241,1.146,0.199,3.084,0.172,3.872c0.09,0.007,0.177,0.01,0.262,0.007
		c0.976-0.015,1.138-0.517,1.158-0.6c0.008-0.18,0.055-1.294,0.035-2.526c-0.03-2.101-0.227-2.97-0.387-3.329
		c-0.449-1.017-2.912-2.967-3.83-3.705l0.369-0.623c0.142,0.114,3.523,2.643,4.136,4.031c0.269,0.613,0.421,1.829,0.449,3.612
		c0.015,0.934-0.008,1.802-0.025,2.26c0.033,0.003,0.065,0.003,0.098,0c0.388-0.003,0.698-0.155,0.935-0.344l0.015-0.316
		c0-0.025,0.107-2.532-0.205-5.947C33.195,11.245,32.09,10.396,30.923,9.501z"/>
</g>
</svg>