<!-- Generator: Adobe Illustrator 18.1.1, SVG Export Plug-In  -->
<svg version="1.1"
	 xmlns="http://www.w3.org/2000/svg" xmlns:xlink="http://www.w3.org/1999/xlink" xmlns:a="http://ns.adobe.com/AdobeSVGViewerExtensions/3.0/"
	 x="0px" y="0px" width="60px" height="30.295px" viewBox="0 0 60 30.295" enable-background="new 0 0 60 30.295"
	 xml:space="preserve">
<defs>
</defs>
<g>
	<path fill="#FFFFFF" d="M59.361,13.716C58.738,13.155,43.953,0,30,0C16.047,0,1.262,13.155,0.638,13.716
		C0.232,14.081,0,14.603,0,15.149c0,0.546,0.232,1.067,0.638,1.432c0.624,0.561,15.409,13.714,29.361,13.714
		c13.954,0,28.739-13.153,29.362-13.714C59.768,16.216,60,15.694,60,15.149C60,14.603,59.768,14.081,59.361,13.716z M29.999,26.052
		c-6.011,0-10.903-4.891-10.903-10.903c0-6.013,4.892-10.904,10.903-10.904c6.011,0,10.904,4.891,10.904,10.904
		C40.903,21.161,36.011,26.052,29.999,26.052z M17.657,7.08c-1.522,2.321-2.416,5.09-2.416,8.069c0,2.974,0.89,5.74,2.412,8.061
		c-5.519-2.598-10.288-6.118-12.718-8.063C7.365,13.2,12.133,9.676,17.657,7.08z M42.343,23.215c1.521-2.321,2.416-5.09,2.416-8.066
		c0-2.974-0.892-5.742-2.412-8.063c5.518,2.598,10.286,6.118,12.718,8.063C52.635,17.095,47.867,20.617,42.343,23.215z"/>
	<path fill="#FFFFFF" d="M29.999,8.944c-3.428,0-6.204,2.776-6.204,6.205c0,3.428,2.777,6.204,6.204,6.204
		c3.428,0,6.205-2.777,6.205-6.204C36.205,11.72,33.428,8.944,29.999,8.944z M29.999,12.869c-1.257,0-2.279,1.022-2.279,2.28
		c0,0.533-0.433,0.963-0.964,0.963c-0.535,0-0.964-0.431-0.964-0.963c0-2.319,1.886-4.208,4.207-4.208
		c0.533,0,0.964,0.431,0.964,0.964C30.964,12.438,30.533,12.869,29.999,12.869z"/>
</g>
</svg>