<!-- Generator: Adobe Illustrator 18.1.1, SVG Export Plug-In  -->
<svg version="1.1"
	 xmlns="http://www.w3.org/2000/svg" xmlns:xlink="http://www.w3.org/1999/xlink" xmlns:a="http://ns.adobe.com/AdobeSVGViewerExtensions/3.0/"
	 x="0px" y="0px" width="47.008px" height="46.902px" viewBox="0 0 47.008 46.902" enable-background="new 0 0 47.008 46.902"
	 xml:space="preserve">
<defs>
</defs>
<g>
	<path fill="#333333" d="M30.625,45.746l-0.002-0.031l-0.008,0.01l-0.09-2.393c0.004,0.001,0.008,0.003,0.012,0.003l-0.178-4.818
		l7.623-21.234v-4.845L26.719,0H0v46.902h37.982v-14.05l-2.611,7.296L30.625,45.746z M37.375,13.167h-9.169
		c-1.125,0-2.038-1.028-2.038-2.3L26.112,0.728L37.375,13.167z M7.217,16.501h23.32v1.293H7.217V16.501z M7.277,20.069h23.319v1.293
		H7.277V20.069z M7.336,23.638h23.32v1.292H7.336V23.638z M7.395,27.207h23.32V28.5H7.395V27.207z M7.455,30.776h23.32v1.293H7.455
		V30.776z"/>
	<polygon fill="#333333" points="31.316,38.242 31.495,43.091 34.729,39.279 45.992,7.804 42.635,6.713 	"/>
	<path fill="#333333" d="M45.34,3.918c-1.122-0.363-1.68-0.416-1.68-0.416l-0.596,1.659l3.349,1.087l0.595-1.668
		C46.795,4.473,46.23,4.208,45.34,3.918z"/>
</g>
</svg>