<!-- Generator: Adobe Illustrator 18.1.1, SVG Export Plug-In  -->
<svg version="1.1"
	 xmlns="http://www.w3.org/2000/svg" xmlns:xlink="http://www.w3.org/1999/xlink" xmlns:a="http://ns.adobe.com/AdobeSVGViewerExtensions/3.0/"
	 x="0px" y="0px" width="48.663px" height="34.634px" viewBox="0 0 48.663 34.634" enable-background="new 0 0 48.663 34.634"
	 xml:space="preserve">
<defs>
</defs>
<g>
	<path fill="#FFFFFF" d="M44.146,0.083c-2.491,0-4.518,2.183-4.518,4.865c0,2.683,2.027,4.864,4.518,4.864s4.518-2.182,4.518-4.864
		C48.663,2.266,46.637,0.083,44.146,0.083z M44.953,5.818v2.803h-1.617V5.818h-2.602V4.077h2.602V1.275h1.617v2.802h2.602v1.741
		H44.953z"/>
	<path fill="#FFFFFF" d="M41.58,25.292h-0.092h-4.313H19.882l-0.968-4.281h20.277l3.359-9.62c-1.574-0.426-2.875-1.581-3.579-3.116
		c-0.195,0.201-0.458,0.326-0.751,0.326H19.565c-0.6,0-1.086-0.523-1.086-1.168c0-0.647,0.486-1.17,1.086-1.17h18.656
		c0.073,0,0.145,0.008,0.214,0.023c-0.02-0.202-0.03-0.407-0.03-0.614c0-0.533,0.072-1.049,0.196-1.541H15.173l-0.737-3.326
		L14.31,0.835V0.812l-5.728,0.05C8.267,0.354,7.757,0,7.148,0H1.756C0.787,0,0,0.847,0,1.891c0,1.044,0.787,1.89,1.756,1.89h5.393
		c0.591,0,1.091-0.336,1.409-0.82l4.3-0.037l5.32,24.223l0.002,0.26h0.055l0.013,0.055h5.172v1.436
		c-0.881,0.525-1.501,1.498-1.501,2.659c0,1.701,1.28,3.079,2.86,3.079s2.86-1.378,2.86-3.079c0-1.161-0.62-2.134-1.5-2.659V27.46
		h7.832v1.591c-0.758,0.554-1.287,1.444-1.287,2.504c0,1.701,1.28,3.079,2.86,3.079c1.58,0,2.86-1.378,2.86-3.079
		c0-1.261-0.707-2.337-1.713-2.814V27.46h0.484h4.293h0.111c0.597,0,1.083-0.485,1.083-1.083
		C42.663,25.777,42.176,25.292,41.58,25.292z M35.378,18.678H22.408c-0.418,0-0.755-0.524-0.755-1.17c0-0.646,0.337-1.17,0.755-1.17
		h12.971c0.418,0,0.755,0.523,0.755,1.17C36.134,18.153,35.796,18.678,35.378,18.678z M20.862,11.391h16.063
		c0.516,0,0.935,0.523,0.935,1.17c0,0.646-0.419,1.169-0.935,1.169H20.862c-0.517,0-0.936-0.523-0.936-1.169
		C19.926,11.914,20.345,11.391,20.862,11.391z M26.42,31.555c0,0.977-0.734,1.767-1.641,1.767c-0.906,0-1.642-0.789-1.642-1.767
		c0-0.976,0.735-1.767,1.642-1.767C25.686,29.788,26.42,30.579,26.42,31.555z M37.185,31.555c0,0.977-0.733,1.767-1.641,1.767
		c-0.906,0-1.641-0.789-1.641-1.767c0-0.94,0.687-1.691,1.547-1.747h0.188C36.499,29.863,37.185,30.614,37.185,31.555z"/>
</g>
</svg>