<!-- Generator: Adobe Illustrator 18.1.1, SVG Export Plug-In  -->
<svg version="1.1"
	 xmlns="http://www.w3.org/2000/svg" xmlns:xlink="http://www.w3.org/1999/xlink" xmlns:a="http://ns.adobe.com/AdobeSVGViewerExtensions/3.0/"
	 x="0px" y="0px" width="60px" height="31.488px" viewBox="0 0 60 31.488" enable-background="new 0 0 60 31.488"
	 xml:space="preserve">
<defs>
</defs>
<g>
	<polygon fill="#468080" points="57.044,7.438 54.042,7.438 51.074,10.446 51.074,15.124 9.05,15.124 9.05,2.941 6.011,0 3.009,0 
		0,2.941 0,31.488 3.009,31.488 6.011,31.488 9.05,31.488 9.05,26.901 51.074,26.901 51.074,31.488 54.042,31.488 57.044,31.488 
		60,31.488 60,26.96 60,15.138 60,10.446 	"/>
	<circle fill="#468080" cx="15.017" cy="8.075" r="4.503"/>
	<polygon fill="#468080" points="48.099,9.089 45.067,7.117 24.065,5.145 21.074,7.117 21.074,11.031 48.099,11.031 	"/>
</g>
</svg>