<!-- Generator: Adobe Illustrator 18.1.1, SVG Export Plug-In  -->
<svg version="1.1"
	 xmlns="http://www.w3.org/2000/svg" xmlns:xlink="http://www.w3.org/1999/xlink" xmlns:a="http://ns.adobe.com/AdobeSVGViewerExtensions/3.0/"
	 x="0px" y="0px" width="48.876px" height="37.424px" viewBox="0 0 48.876 37.424" enable-background="new 0 0 48.876 37.424"
	 xml:space="preserve">
<defs>
</defs>
<g>
	<path fill="#FFFFFF" d="M3.143,36.207c0,0.676,0.545,1.217,1.231,1.217h40.125c0.682,0,1.23-0.541,1.23-1.217V17.758H3.143V36.207z
		 M38.946,22.191c0-0.672,0.56-1.215,1.239-1.215h1.438c0.678,0,1.233,0.543,1.233,1.215V33.35c0,0.672-0.556,1.217-1.233,1.217
		h-1.438c-0.68,0-1.239-0.545-1.239-1.217V22.191z M31.206,21.9c0-0.672,0.552-1.217,1.231-1.217h1.439
		c0.682,0,1.229,0.545,1.229,1.217v11.158c0,0.668-0.548,1.217-1.229,1.217h-1.439c-0.68,0-1.231-0.549-1.231-1.217V21.9z
		 M22.7,21.9c0-0.67,0.549-1.217,1.234-1.217h1.437c0.679,0,1.232,0.547,1.232,1.217v11.16c0,0.668-0.553,1.217-1.232,1.217h-1.437
		c-0.685,0-1.234-0.549-1.234-1.217V21.9z M14.354,21.824c0-0.67,0.557-1.215,1.234-1.215h1.44c0.682,0,1.232,0.545,1.232,1.215
		v11.162c0,0.67-0.551,1.217-1.232,1.217h-1.44c-0.678,0-1.234-0.547-1.234-1.217V21.824z M6.016,21.824
		c0-0.67,0.548-1.215,1.229-1.215h1.439c0.686,0,1.231,0.545,1.231,1.215v11.162c0,0.67-0.545,1.217-1.231,1.217H7.245
		c-0.682,0-1.229-0.547-1.229-1.217V21.824z"/>
	<path fill="#FFFFFF" d="M47.655,10.356h-8.778V5.859C38.877,2.621,35.838,0,32.085,0H18.187c-3.749,0-6.791,2.621-6.791,5.859
		v4.496H1.214C0.542,10.356,0,10.922,0,11.629v3.709c0,0.699,0.542,1.271,1.214,1.271h46.441c0.678,0,1.221-0.572,1.221-1.271
		v-3.709C48.876,10.922,48.333,10.356,47.655,10.356z M13.563,12.955v-1.158c0.536,0.367,0.889,0.986,0.889,1.688
		c0,0.383-0.111,0.738-0.295,1.044C13.777,14.234,13.563,13.75,13.563,12.955z M35.592,13.344c0-0.793,0.456-1.475,1.118-1.811
		v1.422c0,0.576-0.371,0.946-0.958,1.186C35.649,13.896,35.592,13.627,35.592,13.344z M13.563,6.608
		c0-2.613,2.461-4.733,5.496-4.733h12.152c3.036,0,5.498,2.119,5.498,4.733v3.748H13.563V6.608z M10.4,13.484
		c0-0.746,0.401-1.393,0.995-1.748v1.973c0,0.785,0.199,1.345,0.549,1.747C11.06,15.238,10.4,14.441,10.4,13.484z M37.757,15.369
		c0.689-0.381,1.12-0.91,1.12-1.66v-1.945c0.462,0.374,0.763,0.94,0.763,1.58C39.64,14.42,38.808,15.295,37.757,15.369z"/>
</g>
</svg>