<!-- Generator: Adobe Illustrator 18.1.1, SVG Export Plug-In  -->
<svg version="1.1"
	 xmlns="http://www.w3.org/2000/svg" xmlns:xlink="http://www.w3.org/1999/xlink" xmlns:a="http://ns.adobe.com/AdobeSVGViewerExtensions/3.0/"
	 x="0px" y="0px" width="49.48px" height="45.804px" viewBox="0 0 49.48 45.804" enable-background="new 0 0 49.48 45.804"
	 xml:space="preserve">
<defs>
</defs>
<path fill="#FFFFFF" d="M49.48,27.615c0-0.003-0.002-0.004-0.002-0.008l-0.041-0.016h0.023l-6.803-13.19h2.758v-1.836h-3.064v-0.021
	c0,0-11.156-4.633-16.75-5.459V3.297c0.739-0.18,1.299-0.815,1.299-1.609C26.9,0.756,26.144,0,25.213,0h-2.221
	c-0.932,0-1.686,0.756-1.686,1.688c0,0.799,0.565,1.435,1.308,1.611V7.09c-5.539,0.828-16.454,5.348-16.688,5.445H2.703v1.836h2.766
	L0.002,27.607C0.001,27.61,0,27.612,0,27.615c0,0.088,0.013,0.176,0.035,0.264c0.402,3.295,3.197,5.853,6.603,5.853
	c3.453,0,6.293-2.625,6.633-5.99c-0.004,0.002-0.007,0.004-0.01,0.006c0.006-0.045,0.018-0.088,0.018-0.133
	c0-0.003-0.002-0.004-0.002-0.008l-0.041-0.016h0.024L6.352,14.197c2.082-0.849,11.311-4.529,16.262-5.271v32.108
	c0,0.018,0.004,0.033,0.004,0.052H18.83v2.319h-3.117v2.397h16.791v-2.397h-3.119v-2.319h-3.787
	c0.002-0.018,0.004-0.034,0.004-0.052V8.922c4.826,0.713,13.79,4.258,16.162,5.219l-5.562,13.467
	c-0.001,0.003-0.001,0.005-0.001,0.008c0,0.088,0.012,0.176,0.035,0.264c0.402,3.295,3.197,5.853,6.604,5.853
	c3.452,0,6.292-2.625,6.633-5.99c-0.004,0.002-0.008,0.004-0.01,0.006C49.469,27.703,49.48,27.66,49.48,27.615z M12.838,27.33
	L0.429,27.319l5.347-12.948h0.126v0.01c0,0,0.02-0.008,0.024-0.01h0.006v-0.002c0.016-0.008,0.061-0.025,0.156-0.064L12.838,27.33z
	 M36.629,27.319l5.399-13.071c0.051,0.021,0.123,0.051,0.16,0.066v0.087h0.152l6.697,12.929L36.629,27.319z"/>
</svg>