<!-- Generator: Adobe Illustrator 18.1.1, SVG Export Plug-In  -->
<svg version="1.1"
	 xmlns="http://www.w3.org/2000/svg" xmlns:xlink="http://www.w3.org/1999/xlink" xmlns:a="http://ns.adobe.com/AdobeSVGViewerExtensions/3.0/"
	 x="0px" y="0px" width="49.019px" height="48.5px" viewBox="0 0 49.019 48.5" enable-background="new 0 0 49.019 48.5"
	 xml:space="preserve">
<defs>
</defs>
<g>
	<path fill="#468080" d="M24.511,0C10.977,0,0,10.859,0,24.251C0,37.645,10.977,48.5,24.511,48.5
		c13.535,0,24.508-10.855,24.508-24.249C49.019,10.859,38.046,0,24.511,0z M24.511,44.716c-11.426,0-20.686-9.162-20.686-20.465
		c0-11.306,9.26-20.466,20.686-20.466c11.419,0,20.683,9.16,20.683,20.466C45.193,35.554,35.93,44.716,24.511,44.716z"/>
	<path fill="#468080" d="M25.24,7.34c0,0.395-0.33,0.723-0.729,0.723l0,0c-0.405,0-0.733-0.328-0.733-0.723V5.406
		c0-0.4,0.328-0.723,0.733-0.723l0,0c0.399,0,0.729,0.322,0.729,0.723V7.34z"/>
	<path fill="#468080" d="M25.24,43.322c0,0.396-0.33,0.722-0.729,0.722l0,0c-0.405,0-0.733-0.325-0.733-0.722v-1.935
		c0-0.397,0.328-0.722,0.733-0.722l0,0c0.399,0,0.729,0.324,0.729,0.722V43.322z"/>
	<path fill="#468080" d="M7.809,23.522c0.401,0,0.73,0.327,0.73,0.729l0,0c0,0.397-0.329,0.724-0.73,0.724H5.86
		c-0.41,0-0.731-0.326-0.731-0.724l0,0c0-0.401,0.32-0.729,0.731-0.729H7.809z"/>
	<path fill="#468080" d="M43.381,23.522c0.405,0,0.736,0.327,0.736,0.729l0,0c0,0.397-0.331,0.724-0.736,0.724H41.43
		c-0.402,0-0.73-0.326-0.73-0.724l0,0c0-0.401,0.328-0.729,0.73-0.729H43.381z"/>
	<g id="g920_1_" transform="translate(-1.105212,-845.0955)">
		<path id="path915_1_" fill="#468080" stroke="#404041" stroke-miterlimit="10" d="M28.158,871.277l-10.905-4.301"/>
		<path id="path916_1_" fill="#468080" stroke="#404041" stroke-miterlimit="10" d="M24.908,872.5l7.64-13.723"/>
		<path id="path919_1_" fill="#468080" stroke="#404041" stroke-miterlimit="10" d="M23.369,870.801l16.505-1.673"/>
	</g>
</g>
</svg>