<!-- Generator: Adobe Illustrator 18.1.1, SVG Export Plug-In  -->
<svg version="1.1"
	 xmlns="http://www.w3.org/2000/svg" xmlns:xlink="http://www.w3.org/1999/xlink" xmlns:a="http://ns.adobe.com/AdobeSVGViewerExtensions/3.0/"
	 x="0px" y="0px" width="46.261px" height="47.299px" viewBox="0 0 46.261 47.299" enable-background="new 0 0 46.261 47.299"
	 xml:space="preserve">
<defs>
</defs>
<g>
	<path fill="#FFFFFF" d="M35.462,22.985H23.779V11.042l0.821,0.1c5.663,0.688,10.09,5.215,10.765,11.005L35.462,22.985z
		 M25.247,21.484h8.532c-0.849-4.416-4.211-7.854-8.532-8.721V21.484z"/>
	<path fill="#FFFFFF" d="M22.481,36.257l-0.82-0.1c-5.664-0.689-10.09-5.216-10.765-11.007L10.8,24.313h11.682V36.257z
		 M12.484,25.813c0.848,4.418,4.21,7.855,8.53,8.723v-8.723H12.484z"/>
	<g>
		<path fill="#FFFFFF" d="M10.897,22.146L10.8,22.985h11.682V11.042l-0.82,0.1C15.998,11.83,11.572,16.356,10.897,22.146z"/>
		<path fill="#FFFFFF" d="M23.779,24.313v11.944l0.821-0.1c5.664-0.689,10.091-5.216,10.765-11.007l0.097-0.838H23.779z"/>
	</g>
	<path fill-rule="evenodd" clip-rule="evenodd" fill="#FFFFFF" d="M46.261,22.404h-4.517C41.139,12.865,33.65,5.218,24.316,4.617
		h0.032V0h-2.434v4.617h0.033c-9.334,0.601-16.824,8.248-17.43,17.787H0v2.49h4.517c0.602,9.527,8.077,17.17,17.397,17.787v4.617
		h2.434v-4.617c9.32-0.617,16.794-8.259,17.397-17.787h4.517V22.404z M23.131,41.237c-9.5,0-17.202-7.874-17.202-17.587
		c0-9.713,7.702-17.588,17.202-17.588c9.5,0,17.201,7.875,17.201,17.588C40.333,33.363,32.631,41.237,23.131,41.237z"/>
</g>
</svg>