<!-- Generator: Adobe Illustrator 18.1.1, SVG Export Plug-In  -->
<svg version="1.1"
	 xmlns="http://www.w3.org/2000/svg" xmlns:xlink="http://www.w3.org/1999/xlink" xmlns:a="http://ns.adobe.com/AdobeSVGViewerExtensions/3.0/"
	 x="0px" y="0px" width="49.005px" height="37.238px" viewBox="0 0 49.005 37.238" enable-background="new 0 0 49.005 37.238"
	 xml:space="preserve">
<defs>
</defs>
<g>
	<polygon fill="#468080" points="6.458,24.804 6.458,15.856 2.307,15.856 2.307,23.476 5.527,26.195 	"/>
	<polygon fill="#468080" points="2.307,26.055 2.307,37.238 6.458,37.238 6.458,28.866 5.536,30.1 	"/>
	<polygon fill="#468080" points="7.926,26.905 7.926,37.238 12.077,37.238 12.077,23.173 11.441,22.208 	"/>
	<polygon fill="#468080" points="12.077,17.836 12.077,8.126 7.926,8.126 7.926,22.607 11.606,17.102 	"/>
	<polygon fill="#468080" points="17.697,11.899 13.545,11.899 13.545,20.124 17.697,26.601 	"/>
	<polygon fill="#468080" points="13.545,37.238 17.697,37.238 17.697,31.694 13.545,25.397 	"/>
	<polygon fill="#468080" points="19.164,37.238 21.352,37.238 19.164,33.921 	"/>
	<polygon fill="#468080" points="23.316,28.423 23.316,5.514 19.164,5.514 19.164,28.89 21.352,32.302 	"/>
	<polygon fill="#468080" points="23.316,37.238 23.316,33.566 21.352,37.238 	"/>
	<polygon fill="#468080" points="24.784,30.823 24.784,37.238 28.935,37.238 28.935,23.953 28.759,23.391 	"/>
	<polygon fill="#468080" points="28.935,0 24.784,0 24.784,25.524 28.935,17.323 	"/>
	<polygon fill="#468080" points="30.402,28.62 30.402,37.238 34.555,37.238 34.555,33.323 32.758,36.113 	"/>
	<polygon fill="#468080" points="34.555,28.845 34.555,13.64 30.402,13.64 30.402,21.303 33.413,30.632 	"/>
	<polygon fill="#468080" points="36.022,37.238 40.174,37.238 40.174,24.597 36.022,31.044 	"/>
	<polygon fill="#468080" points="40.174,15.856 36.022,15.856 36.022,26.547 40.174,20.05 	"/>
	<polygon fill="#468080" points="40.933,12.521 43.577,15.726 33.268,31.86 28.948,18.469 21.401,33.377 11.599,18.089 
		5.622,27.028 0,22.28 5.524,29.2 11.465,21.261 21.31,36.191 28.875,22.047 32.909,34.881 44.513,16.861 47.652,20.668 
		49.005,10.274 	"/>
</g>
</svg>