<!-- Generator: Adobe Illustrator 18.1.1, SVG Export Plug-In  -->
<svg version="1.1"
	 xmlns="http://www.w3.org/2000/svg" xmlns:xlink="http://www.w3.org/1999/xlink" xmlns:a="http://ns.adobe.com/AdobeSVGViewerExtensions/3.0/"
	 x="0px" y="0px" width="49.794px" height="37.798px" viewBox="0 0 49.794 37.798" enable-background="new 0 0 49.794 37.798"
	 xml:space="preserve">
<defs>
</defs>
<path fill="#FFFFFF" d="M49.187,18.593L26.369,0.481c-0.814-0.642-2.131-0.642-2.943,0l-7.031,5.582v-1.56h0.617V2.302h-6.607v2.202
	h0.615v5.825L0.608,18.593c-0.81,0.649-0.81,1.688,0,2.34c0.406,0.32,0.94,0.479,1.472,0.479c0.534,0,1.066-0.158,1.469-0.479
	l4.38-3.479v0.164v0.719v19.461h11.085h0.91h9.944h3.074h8.919V18.337v-0.719v-0.164l4.381,3.479c0.812,0.643,2.126,0.643,2.943,0
	C49.997,20.28,49.997,19.242,49.187,18.593z M19.925,36.628v-11.17c0-0.656,0.532-1.185,1.188-1.185h7.567
	c0.655,0,1.188,0.529,1.188,1.185v11.17H19.925z"/>
</svg>