<!-- Generator: Adobe Illustrator 18.1.1, SVG Export Plug-In  -->
<svg version="1.1"
	 xmlns="http://www.w3.org/2000/svg" xmlns:xlink="http://www.w3.org/1999/xlink" xmlns:a="http://ns.adobe.com/AdobeSVGViewerExtensions/3.0/"
	 x="0px" y="0px" width="50.279px" height="45.741px" viewBox="0 0 50.279 45.741" enable-background="new 0 0 50.279 45.741"
	 xml:space="preserve">
<defs>
</defs>
<g>
	<path opacity="0.3" fill="#FFFFFF" d="M45.525,5.499c0,0-3.088-1.967-5.108-2.143c0,0-4.301,0.555-4.74,0.725
		C35.247,4.247,40.85,3.147,45.525,5.499z"/>
	<path fill="#FFFFFF" d="M6.465,13.973c1.36,2.873,1.256,3.441,2.476,12.477c0.271,1.852,1.16,3.52,3.56,3.26
		c9.07-1.707,36.174-7.268,36.174-7.268s2.23-0.498,1.432-3.408l-2.21-10.701c0,0-0.037-1.889-2.951-3.559
		c0,0-3.009-1.93-5.218-1.619L0.585,10.147C0.585,10.147,4.897,10.674,6.465,13.973z"/>
	<g>
		<path fill="#FFFFFF" d="M33.827,5.311c0.319,0.164,0.608,0.146,1.092,0.107c0.487-0.043,1.344-0.182,1.826-0.244
			c0.492-0.059,1.972-0.311,2.346-0.342c0.379-0.033,1.712-0.264,2.397,0.004c0,0,0.939-0.098,0.937-0.129
			c-0.133-0.045-0.818-0.619-1.891-1.094c0,0-5,0.639-6.992,1.037C33.541,4.651,33.506,5.155,33.827,5.311z"/>
		<path fill="#FFFFFF" d="M1.578,11.395l0.331,0.436c0,0,0.651-0.576,2.06-0.713c1.406-0.127,6.758-1.127,7.632-1.225
			c0.863-0.1,2.329-0.49,3.209-1.934c0,0,0.643-1.137,0.846-1.438c0.195-0.303,0.569-1.199,1-1.551l-0.08-0.619
			c0,0-0.484,0.473-0.713,1.023c-0.24,0.549-1.248,2.537-1.95,3.17c-0.702,0.623-1.086,0.699-2.773,1.029
			c-1.687,0.332-5.365,0.811-6.5,0.986C3.499,10.739,2.639,10.745,1.578,11.395z"/>
		<polygon fill="#FFFFFF" points="16.576,4.352 14.552,3.907 14.541,3.596 16.762,4.036 16.918,5.034 16.655,4.971 		"/>
		<g>
			<path fill="#FFFFFF" d="M23.025,1.004c3.834-0.756,6.548-0.58,9.03-0.049c0,0-4.576-1.25-8.314-0.891
				c-3.729,0.348-7.064,1.982-9.177,3.514l2.199,0.457C16.762,4.036,19.199,1.749,23.025,1.004z"/>
		</g>
		<g>
			<path fill="#FFFFFF" d="M16.949,5c0,0,0.003-0.012,0.014-0.023c-0.003,0.008-0.011,0.012-0.014,0.012V5z"/>
			<path fill="#FFFFFF" d="M16.963,4.977c0.349-0.314,5.405-4.848,14.882-3.209l0.209-0.813c-2.482-0.531-5.196-0.707-9.03,0.049
				c-3.826,0.744-6.263,3.031-6.263,3.031l0.187,0.953C16.952,4.989,16.96,4.985,16.963,4.977z"/>
		</g>
		<path fill="#FFFFFF" d="M30.541,1.963l1.305-0.195c0,0-3.648-0.764-6.982-0.166c-3.33,0.602-5.708,1.477-7.983,3.432
			c0,0,2.012-1.109,2.793-1.476c0.784-0.365,2.592-1.135,4.98-1.514c2.394-0.385,4.007-0.34,4.449-0.238
			C29.55,1.907,30.215,2.071,30.541,1.963z"/>
		<path fill="#FFFFFF" d="M31.846,1.768l-1.268,0.201c0.306,0.348,0.133,0.92,0.006,1.225c-0.139,0.309-0.261,0.813-0.172,1.373
			c0.085,0.561,0.76,0.787,0.76,0.787l2.824,0.596c-0.509-0.148-1.069-0.461-0.956-1.428c0.113-0.969,0.062-1.928-0.188-2.352
			c-0.248-0.416-0.931-0.617-0.931-0.617l-0.076,0.244"/>
		<path fill="#FFFFFF" d="M32.069,0.979l-0.142,0.557c0,0,0.63,0.23,0.766,0.414c0.134,0.184,0.323,0.457,0.403,1.172
			c0.07,0.715-0.041,0.967-0.063,1.223C33.009,4.6,32.873,5.79,34.027,5.961c0,0,0.547-0.016,1.435-0.129
			c0.897-0.117,3.5-0.473,4.046-0.529c0.555-0.055,2.969-0.34,3.413-0.154l-0.299-0.246l-0.198-0.195c0,0-1.328-0.123-3.116,0.106
			c-1.8,0.228-4.298,0.676-4.947,0.631c-0.644-0.043-0.803-0.328-0.82-0.793c-0.006-0.463,0.074-1.381,0.04-1.627
			c-0.02-0.236-0.153-0.959-0.503-1.27c-0.362-0.314-0.837-0.572-0.837-0.572L32.069,0.979z"/>
		<path fill="#FFFFFF" d="M1.578,11.395c0,0,0.643-0.467,1.771-0.662c1.127-0.184,3.849-0.529,4.183-0.588
			c0.339-0.057,2.977-0.436,3.735-0.596c0.752-0.16,1.664-0.313,2.15-0.621c0.495-0.307,0.863-0.766,1.197-1.266
			c0.342-0.512,0.775-1.293,0.928-1.613c0.147-0.32,0.428-0.939,0.589-1.168c0.176-0.227,0.444-0.529,0.444-0.529l-0.325-0.07
			c-0.11,0.113-0.388,0.41-0.649,0.885c-0.331,0.615-0.971,2.131-1.338,2.533c-0.368,0.406-0.585,1.01-2.131,1.377
			C10.585,9.446,6.841,10,5.492,10.145c-1.26,0.133-2.983,0.277-4.141,1.078C1.431,11.274,1.51,11.331,1.578,11.395z"/>
		<g>
			<path fill="#FFFFFF" d="M14.776,3.957v0.016c0,0-0.957,0.633-1.358,1.148c-0.404,0.518-0.837,1.568-1.56,2.326
				c-0.732,0.762-0.354,0.832-2.176,1.147C7.869,8.905,6.038,9.143,5.036,9.323C4.028,9.51,1.3,9.579,0.267,10.393
				c0.391,0.068,0.604,0.533,1.084,0.83c1.158-0.801,2.881-0.945,4.141-1.078c1.35-0.145,5.093-0.699,6.641-1.068
				c1.545-0.367,1.763-0.971,2.131-1.377c0.368-0.402,1.007-1.918,1.338-2.533c0.261-0.475,0.538-0.772,0.649-0.885L14.776,3.957z"
				/>
			<path fill="#FFFFFF" d="M9.682,8.594c1.822-0.314,1.443-0.385,2.176-1.147c0.722-0.758,1.155-1.809,1.56-2.326
				c0.402-0.516,1.358-1.148,1.358-1.148V3.957l-0.224-0.051c0,0-1.004,0.83-1.384,1.309c-0.385,0.469-0.889,1.352-1.335,1.904
				c-0.436,0.557-0.77,1.035-1.373,1.193c-0.594,0.158-4.18,0.674-4.18,0.674s-3.22,0.527-3.962,0.68
				C1.728,9.793,0.943,9.877,0.095,10.28c-0.207,0.1-0.043,0.209,0.172,0.113c1.341-0.605,3.903-0.908,4.768-1.07
				C6.038,9.143,7.869,8.905,9.682,8.594z"/>
		</g>
		<g>
			<path fill="#FFFFFF" d="M33.988,5.237c-0.086,0.006-0.165,0.012-0.241,0.012c0.043,0.025,0.085,0.051,0.145,0.076
				c0.037,0,0.067,0,0.096-0.002c0.435-0.037,0.786-0.182,0.783-0.32c0-0.014-0.011-0.025-0.02-0.037
				C34.695,5.088,34.378,5.206,33.988,5.237z"/>
			<path fill="#FFFFFF" d="M33.97,4.825c-0.147,0.012-0.296,0.039-0.418,0.072c0.009,0.105,0.063,0.244,0.195,0.352
				c0.077,0,0.156-0.006,0.241-0.012c0.391-0.031,0.707-0.148,0.764-0.271C34.689,4.856,34.367,4.782,33.97,4.825z"/>
		</g>
	</g>
	<path fill="#FFFFFF" d="M47.984,22.631c-0.009,0.004-0.161,0.703-0.161,0.703s-6.681,1.615-14.492,3.342l-0.048,0.922
		c0.009,0.162-0.152,0.328-0.356,0.363l-4.828,0.82c-0.216,0.037-0.396-0.068-0.405-0.234l0.038-0.66
		c-6.017,1.274-11.951,2.404-15.468,2.781c-2.397,0.25-3.814-0.428-4.33-3.922c-0.47-3.014-1.336-10.074-1.381-10.59
		C6.046,9.832,0.834,8.95,0.243,10.571c-0.456,1.264-0.116,26.084-0.171,26.975c-0.036,0.611-0.135,2.287,1.39,2.99
		c3.73,1.707,5.909,4.387,5.909,4.387v-0.023c0.413,0.422,0.99,0.742,1.643,0.842l37-7.231c1.548-0.266,2.216-0.455,2.198-1.445
		L47.984,22.631z"/>
</g>
</svg>