<!-- Generator: Adobe Illustrator 18.1.1, SVG Export Plug-In  -->
<svg version="1.1"
	 xmlns="http://www.w3.org/2000/svg" xmlns:xlink="http://www.w3.org/1999/xlink" xmlns:a="http://ns.adobe.com/AdobeSVGViewerExtensions/3.0/"
	 x="0px" y="0px" width="30.696px" height="48.317px" viewBox="0 0 30.696 48.317" enable-background="new 0 0 30.696 48.317"
	 xml:space="preserve">
<defs>
</defs>
<g>
	<path fill="#FFFFFF" d="M0.391,0.057v40.872l22.343,7.389V7.446L0.391,0.057z M10.159,40.917L2.722,38.46v-9.367l7.437,2.459
		V40.917z M10.159,28.517l-7.437-2.459v-9.363l7.437,2.461V28.517z M10.159,15.796l-7.437-2.459V3.974l7.437,2.457V15.796z
		 M20.159,44.224l-7.436-2.459v-9.361l7.436,2.458V44.224z M20.159,31.825l-7.436-2.461v-9.362l7.436,2.462V31.825z M20.159,19.104
		l-7.436-2.461V7.28l7.436,2.461V19.104z"/>
	<polygon fill="#FFFFFF" points="0,0 0,41.728 3.121,41.728 3.121,38.776 3.121,2.703 27.575,2.703 27.575,38.776 22.734,38.776 
		22.734,41.728 30.696,41.728 30.696,0 	"/>
</g>
</svg>