<!-- Generator: Adobe Illustrator 18.1.1, SVG Export Plug-In  -->
<svg version="1.1"
	 xmlns="http://www.w3.org/2000/svg" xmlns:xlink="http://www.w3.org/1999/xlink" xmlns:a="http://ns.adobe.com/AdobeSVGViewerExtensions/3.0/"
	 x="0px" y="0px" width="48.95px" height="46.621px" viewBox="0 0 48.95 46.621" enable-background="new 0 0 48.95 46.621"
	 xml:space="preserve">
<defs>
</defs>
<g>
	<path fill="#FFFFFF" d="M0,6.786c0,0,2.796,1.966,12.862-2.238c0,0,10.312-5.56,7.331,3.051c0,0,0.745,1.56,2.484,2.034
		l0.249,5.491c0,0-3.604-3.253-8.14,0.611C14.787,15.735,0.373,11.871,0,6.786z"/>
	<path fill="#FFFFFF" d="M48.95,6.585c0,0-2.797,1.966-12.861-2.237c0,0-10.314-5.561-7.331,3.051c0,0-0.746,1.559-2.485,2.033
		l-0.249,5.492c0,0,3.603-3.254,8.14,0.611C34.163,15.535,48.577,11.67,48.95,6.585z"/>
	<path fill="#FFFFFF" d="M27.382,14.877c6.599,0.871,3.165,3.403,1.635,4.327c-0.98-0.56-2.172-0.929-3.476-1.042l0.193-11.961
		c1.032-0.537,1.746-1.639,1.746-2.924C27.48,1.467,26.075,0,24.34,0C22.606,0,21.2,1.467,21.2,3.277c0,1.33,0.763,2.47,1.853,2.984
		l0.6,11.918c-1.195,0.141-2.282,0.501-3.195,1.02c-1.493-0.889-5.125-3.481,1.571-4.366c0,0-11.298-1.541-3.467,5.979
		c0.013,0.006,0.022,0.01,0.035,0.016c-0.487,0.684-0.79,1.444-0.79,2.266c0,1.783,1.312,3.334,3.268,4.215
		c-0.672,0.59-1.093,1.336-1.093,2.158c0,1.379,1.152,2.545,2.79,3.082c-0.643,0.42-1.055,1.019-1.055,1.689
		c0,1.178,1.253,2.139,2.858,2.271l0.508,10.112l0.164-10.108c1.636-0.111,2.92-1.081,2.92-2.275c0-0.721-0.474-1.355-1.202-1.777
		c1.495-0.572,2.521-1.689,2.521-2.994c0-0.822-0.421-1.568-1.094-2.158c1.956-0.881,3.268-2.432,3.268-4.215
		c0-0.82-0.301-1.582-0.789-2.264C38.653,13.339,27.382,14.877,27.382,14.877z M20.787,23.193c0-1.086,1.28-1.992,3.004-2.252
		l0.229,4.543C22.178,25.274,20.787,24.33,20.787,23.193z M22.347,29.685c0-0.659,0.772-1.209,1.815-1.371l0.139,2.767
		C23.188,30.948,22.347,30.375,22.347,29.685z M23.279,34.238c0-0.508,0.481-0.92,1.128-1.061l0.107,2.135
		C23.813,35.198,23.279,34.771,23.279,34.238z M25.265,35.305l0.034-2.129c0.653,0.139,1.141,0.553,1.141,1.063
		C26.44,34.757,25.935,35.175,25.265,35.305z M25.333,31.07l0.045-2.762c1.061,0.154,1.85,0.709,1.85,1.377
		C27.228,30.361,26.417,30.926,25.333,31.07z M25.423,25.492l0.074-4.592c1.87,0.197,3.292,1.145,3.292,2.293
		C28.79,24.356,27.329,25.313,25.423,25.492z"/>
</g>
</svg>