<!-- Generator: Adobe Illustrator 18.1.1, SVG Export Plug-In  -->
<svg version="1.1"
	 xmlns="http://www.w3.org/2000/svg" xmlns:xlink="http://www.w3.org/1999/xlink" xmlns:a="http://ns.adobe.com/AdobeSVGViewerExtensions/3.0/"
	 x="0px" y="0px" width="37.495px" height="50.904px" viewBox="0 0 37.495 50.904" enable-background="new 0 0 37.495 50.904"
	 xml:space="preserve">
<defs>
</defs>
<g>
	<path fill-rule="evenodd" clip-rule="evenodd" fill="#FFFFFF" d="M36.131,23.178c-0.453,0.457-2.572,0-2.572,0v26.168
		c0,1.043-0.84,1.559-2.529,1.559c-1.807,0-2.705-0.516-2.705-1.559V23.178c0,0-1.965,0.427-2.391,0c-3.068-3.078,0-17.432,0-17.432
		l0.732-2.273l0.537,2.273v10.77h3.131V5.746l0.711-2.273l0.711,2.273v10.77h2.922V5.746l0.74-2.273l0.713,2.273
		C36.131,5.746,39.201,20.1,36.131,23.178z"/>
	<path fill-rule="evenodd" clip-rule="evenodd" fill="#FFFFFF" d="M19.613,49.445c0,0.976-0.746,1.459-2.242,1.459
		c-1.694,0-2.541-0.483-2.541-1.459V31.261l-1.975-4.169c0,0-2.486-17.797,6.758-23.619C19.346,11.354,19.613,49.445,19.613,49.445z
		"/>
</g>
<path fill="#FFFFFF" d="M0,0"/>
</svg>