<!-- Generator: Adobe Illustrator 18.1.1, SVG Export Plug-In  -->
<svg version="1.1"
	 xmlns="http://www.w3.org/2000/svg" xmlns:xlink="http://www.w3.org/1999/xlink" xmlns:a="http://ns.adobe.com/AdobeSVGViewerExtensions/3.0/"
	 x="0px" y="0px" width="43.522px" height="48.442px" viewBox="0 0 43.522 48.442" enable-background="new 0 0 43.522 48.442"
	 xml:space="preserve">
<defs>
</defs>
<g>
	<path fill-rule="evenodd" clip-rule="evenodd" fill="#468080" d="M21.832,5.633c-3.683,3.273-9.984,8.119-17.176,10.418
		c0.928,5.415,4.339,16.541,16.828,26.877c4.326-3.224,14.552-12.274,17.371-27.365C34.496,13.766,27.521,10.438,21.832,5.633z"/>
	<path fill-rule="evenodd" clip-rule="evenodd" fill="#468080" d="M21.76,0c0,0-10.413,11.121-21.76,13.045
		c0,0-0.137,19.347,21.238,35.398c0,0,19.613-11.044,22.283-35.398C43.522,13.045,29.543,8.317,21.76,0z M21.43,44.816
		C6.693,33.063,3.621,20.057,2.982,14.984c8.195-2.231,15.442-8.213,18.829-11.357c6.305,5.695,14.794,9.45,18.727,11
		C37.791,32.021,25.705,41.837,21.43,44.816z"/>
</g>
</svg>