<?xml version="1.0" encoding="utf-8"?>
<!-- Generator: Adobe Illustrator 18.1.1, SVG Export Plug-In . SVG Version: 6.00 Build 0)  -->
<svg version="1.1" id="Layer_1" xmlns:sketch="http://www.bohemiancoding.com/sketch/ns"
	 xmlns="http://www.w3.org/2000/svg" xmlns:xlink="http://www.w3.org/1999/xlink" x="0px" y="0px" viewBox="0 0 60 60"
	 enable-background="new 0 0 60 60" xml:space="preserve">
<title>Fill 2</title>
<desc>Created with Sketch.</desc>
<g id="Comp-3" sketch:type="MSPage">
	<g id="Home-Concept-5" transform="translate(-1257.000000, -4446.000000)" sketch:type="MSArtboardGroup">
		<path id="Fill-2" sketch:type="MSShapeGroup" fill="#033333" d="M1318,4458.9c-2.3,0.9-4.6,1.7-7.1,2c2.6-1.4,4.6-4,5.4-6.9
			c-2.3,1.4-5.1,2.3-7.7,2.9c-2.3-2.3-5.4-4-8.9-4c-6.9,0-12.3,5.4-12.3,12.3c0,0.9,0,2,0.3,2.9c-10.3-0.6-19.4-5.4-25.4-12.9
			c-1.1,1.7-1.7,4-1.7,6.3c0,4.3,2.3,8,5.4,10.3c-2,0-4-0.6-5.7-1.4c0,0,0,0,0,0.3c0,6,4.3,10.9,10,12c-1.1,0.3-2,0.3-3.1,0.3
			c-0.9,0-1.4,0-2.3-0.3c1.4,4.9,6,8.3,11.4,8.6c-4.3,3.4-9.4,5.1-15.4,5.1c-0.9,0-2,0-2.9-0.3c5.4,3.4,12,5.4,18.9,5.4
			c22.6,0,35.1-18.6,35.1-34.9c0-0.6,0-1.1,0-1.7C1314.3,4463.4,1316.3,4461.4,1318,4458.9"/>
	</g>
</g>
</svg>
