<?xml version="1.0" encoding="UTF-8" standalone="no"?>
<svg width="21px" height="18px" viewBox="0 0 21 18" version="1.1" xmlns="http://www.w3.org/2000/svg" xmlns:xlink="http://www.w3.org/1999/xlink" xmlns:sketch="http://www.bohemiancoding.com/sketch/ns">
    <!-- Generator: Sketch 3.2.2 (9983) - http://www.bohemiancoding.com/sketch -->
    <title>Fill 2</title>
    <desc>Created with Sketch.</desc>
    <defs></defs>
    <g id="Comp-3" stroke="none" stroke-width="1" fill="none" fill-rule="evenodd" sketch:type="MSPage">
        <g id="Home-Concept-5" sketch:type="MSArtboardGroup" transform="translate(-1257.000000, -4446.000000)" fill="#FFFFFF">
            <path d="M1278,4448.51208 C1277.22835,4448.85381 1276.39724,4449.08433 1275.52545,4449.18799 C1276.41547,4448.65738 1277.0982,4447.81633 1277.41993,4446.81351 C1276.58742,4447.30528 1275.66542,4447.66265 1274.68424,4447.85517 C1273.89829,4447.02083 1272.77826,4446.5 1271.53902,4446.5 C1269.1604,4446.5 1267.23086,4448.42183 1267.23086,4450.79212 C1267.23086,4451.12798 1267.26901,4451.4549 1267.34278,4451.7698 C1263.76195,4451.59097 1260.587,4449.88206 1258.46195,4447.28544 C1258.09085,4447.91888 1257.87908,4448.65626 1257.87908,4449.44338 C1257.87908,4450.93211 1258.63923,4452.24593 1259.79516,4453.01544 C1259.08943,4452.99309 1258.42493,4452.80001 1257.84402,4452.47812 C1257.84346,4452.49656 1257.84346,4452.51473 1257.84346,4452.53317 C1257.84346,4454.61119 1259.32869,4456.34553 1261.29974,4456.74119 C1260.93846,4456.83842 1260.55727,4456.89123 1260.16457,4456.89123 C1259.88688,4456.89123 1259.61648,4456.86497 1259.35393,4456.81411 C1259.90231,4458.51884 1261.49329,4459.76001 1263.37851,4459.79437 C1261.90394,4460.94529 1260.04648,4461.6321 1258.02774,4461.6321 C1257.67993,4461.6321 1257.33716,4461.61142 1257,4461.57146 C1258.90682,4462.79 1261.17156,4463.5 1263.60459,4463.5 C1271.52921,4463.5 1275.86261,4456.96025 1275.86261,4451.28893 C1275.86261,4451.10311 1275.85896,4450.9173 1275.85083,4450.73317 C1276.6926,4450.12935 1277.42302,4449.37268 1278,4448.51208" id="Fill-2" sketch:type="MSShapeGroup"></path>
        </g>
    </g>
</svg>