<?xml version="1.0" encoding="utf-8"?>
<!-- Generator: Adobe Illustrator 18.1.1, SVG Export Plug-In . SVG Version: 6.00 Build 0)  -->
<svg version="1.1" id="Capa_1" xmlns="http://www.w3.org/2000/svg" xmlns:xlink="http://www.w3.org/1999/xlink" x="0px" y="0px"
	 viewBox="0 0 60 60" enable-background="new 0 0 60 60" xml:space="preserve">
<g>
	<path fill="#333333" d="M57.3,47.6c-0.4,0-0.6,0-1,0c-3.1,0-6.3,0-9.4,0c-0.4,0-0.8-0.2-1.2-0.4c-0.6-0.6-1.3-1.2-1.9-1.7
		c-1.5-1.5-3.1-3.3-4.6-4.8c-0.6-0.6-1-1-1.5-1.3c-0.4-0.2-0.8-0.2-1.2-0.2s-0.8,0.2-1,0.6c-0.2,0.4-0.4,0.8-0.4,1.2
		c0,0.8,0,1.5,0,2.3s0,1.7-0.2,2.5c-0.2,0.4-0.2,0.8-0.4,1c-0.4,0.6-0.8,1-1.5,1c-2.7,0-5.6,0.2-8.2,0c-0.6,0-1-0.2-1.3-0.4
		c-2.5-1.3-4.8-2.9-6.7-5c-2.3-2.5-4.6-5.2-6.7-8.1c-2.9-3.6-5.4-7.7-7.7-11.7c-0.8-1.5-1.5-3.1-2.3-4.6c-0.4-0.8-0.4-1.5,0-2.3
		c0-0.2,0.2-0.4,0.4-0.8c0.2-0.4,0.4-0.4,0.8-0.6c0.2,0,0.2,0,0.4,0c2.9,0,5.8,0,8.6,0c0.6,0,1,0.2,1.3,0.6c0.8,0.8,1.3,1.5,1.7,2.3
		c0.6,1,1.2,1.9,1.5,2.9c1,2.1,2.3,4,3.6,6.1c0.6,1,1.3,1.9,2.1,2.7c0.4,0.4,0.8,0.6,1.3,0.6c0.6,0,0.8-0.2,0.8-0.8
		c0-0.2,0-0.2,0-0.4c0-3.3,0-6.5,0-9.8c0-0.2,0-0.6,0-0.8c0-0.6-0.4-1-1-1c-0.2,0-0.6,0-0.8-0.2c-0.8-0.2-1.2-0.4-1.2-1.3
		c-0.2-1.2,0.4-2.1,1.5-2.7c0.6-0.2,1-0.2,1.5-0.2c2.5,0,5.2,0,7.7,0c0.6,0,1,0,1.5,0c0.6,0,1.2,0.2,1.5,0.2
		c1.2,0.4,1.7,1.2,1.9,2.3c0,0.2,0,0.6,0,0.8c0,1.9,0,3.8,0,5.9s0,4.2,0,6.3c0,0.2,0,0.4,0,0.6c0.2,0.6,1,0.8,1.5,0.4
		c1.7-1.2,2.9-2.9,3.6-4.6s1.5-3.5,2.3-5.2c0.6-1.3,1.2-2.7,1.9-4c0.2-0.4,0.4-0.6,0.6-1c0.2-0.2,0.4-0.4,0.8-0.4
		c3.6,0,7.5,0,11.1,0c1,0,1.5,0.4,2.1,1.2c0.2,0.2,0.2,0.6,0.4,0.8c0.2,1.5-0.2,2.7-1,4c-0.6,1.2-1.5,2.3-2.3,3.3
		c-1.7,2.1-3.5,4.2-5,6.5c-0.4,0.6-0.8,1.2-1.2,1.9c-0.2,0.4-0.2,1,0.2,1.3c0.6,0.8,1.3,1.7,2.1,2.5c1.7,1.9,3.5,3.6,5,5.4
		c0.6,0.6,1,1.2,1.5,1.9c0.2,0.2,0.2,0.4,0.4,0.6C60.6,44.9,58.9,47.4,57.3,47.6z"/>
</g>
</svg>
