<?xml version="1.0" encoding="utf-8"?>
<!-- Generator: Adobe Illustrator 18.1.1, SVG Export Plug-In . SVG Version: 6.00 Build 0)  -->
<svg version="1.1" id="Capa_1" xmlns="http://www.w3.org/2000/svg" xmlns:xlink="http://www.w3.org/1999/xlink" x="0px" y="0px"
	 viewBox="-13 15.7 31.3 31.3" enable-background="new -13 15.7 31.3 31.3" xml:space="preserve">
<g>
	<path fill="#FFFFFF" d="M17.1,40.4c-0.2,0-0.3,0-0.5,0c-1.6,0-3.3,0-4.9,0c-0.2,0-0.4-0.1-0.6-0.2c-0.3-0.3-0.7-0.6-1-0.9
		c-0.8-0.8-1.6-1.7-2.4-2.5c-0.3-0.3-0.5-0.5-0.8-0.7C6.7,36,6.5,36,6.3,36c-0.2,0-0.4,0.1-0.5,0.3c-0.1,0.2-0.2,0.4-0.2,0.6
		c0,0.4,0,0.8,0,1.2c0,0.4,0,0.9-0.1,1.3c-0.1,0.2-0.1,0.4-0.2,0.5c-0.2,0.3-0.4,0.5-0.8,0.5c-1.4,0-2.9,0.1-4.3,0
		c-0.3,0-0.5-0.1-0.7-0.2c-1.3-0.7-2.5-1.5-3.5-2.6c-1.2-1.3-2.4-2.7-3.5-4.2c-1.5-1.9-2.8-4-4-6.1c-0.4-0.8-0.8-1.6-1.2-2.4
		c-0.2-0.4-0.2-0.8,0-1.2c0-0.1,0.1-0.2,0.2-0.4c0.1-0.2,0.2-0.2,0.4-0.3c0.1,0,0.1,0,0.2,0c1.5,0,3,0,4.5,0c0.3,0,0.5,0.1,0.7,0.3
		c0.4,0.4,0.7,0.8,0.9,1.2c0.3,0.5,0.6,1,0.8,1.5c0.5,1.1,1.2,2.1,1.9,3.2c0.3,0.5,0.7,1,1.1,1.4c0.2,0.2,0.4,0.3,0.7,0.3
		c0.3,0,0.4-0.1,0.4-0.4c0-0.1,0-0.1,0-0.2c0-1.7,0-3.4,0-5.1c0-0.1,0-0.3,0-0.4c0-0.3-0.2-0.5-0.5-0.5c-0.1,0-0.3,0-0.4-0.1
		c-0.4-0.1-0.6-0.2-0.6-0.7c-0.1-0.6,0.2-1.1,0.8-1.4c0.3-0.1,0.5-0.1,0.8-0.1c1.3,0,2.7,0,4,0c0.3,0,0.5,0,0.8,0
		c0.3,0,0.6,0.1,0.8,0.1c0.6,0.2,0.9,0.6,1,1.2c0,0.1,0,0.3,0,0.4c0,1,0,2,0,3.1c0,1.1,0,2.2,0,3.3c0,0.1,0,0.2,0,0.3
		c0.1,0.3,0.5,0.4,0.8,0.2c0.9-0.6,1.5-1.5,1.9-2.4c0.4-0.9,0.8-1.8,1.2-2.7c0.3-0.7,0.6-1.4,1-2.1c0.1-0.2,0.2-0.3,0.3-0.5
		c0.1-0.1,0.2-0.2,0.4-0.2c1.9,0,3.9,0,5.8,0c0.5,0,0.8,0.2,1.1,0.6c0.1,0.1,0.1,0.3,0.2,0.4c0.1,0.8-0.1,1.4-0.5,2.1
		c-0.3,0.6-0.8,1.2-1.2,1.7c-0.9,1.1-1.8,2.2-2.6,3.4c-0.2,0.3-0.4,0.6-0.6,1c-0.1,0.2-0.1,0.5,0.1,0.7c0.3,0.4,0.7,0.9,1.1,1.3
		c0.9,1,1.8,1.9,2.6,2.8c0.3,0.3,0.5,0.6,0.8,1c0.1,0.1,0.1,0.2,0.2,0.3C18.8,39,17.9,40.3,17.1,40.4z"/>
</g>
</svg>
